<svg xmlns="http://www.w3.org/2000/svg" xmlns:xlink="http://www.w3.org/1999/xlink" width="500" zoomAndPan="magnify" viewBox="0 0 375 374.999991" height="500" preserveAspectRatio="xMidYMid meet" version="1.2"><defs><clipPath id="ce52802951"><path d="M 22.265625 187.171875 L 59.375 187.171875 L 59.375 218.910156 L 22.265625 218.910156 Z M 22.265625 187.171875 "/></clipPath><clipPath id="bf1c719c5b"><path d="M 40.476562 155.910156 L 96.136719 155.910156 L 96.136719 218.910156 L 40.476562 218.910156 Z M 40.476562 155.910156 "/></clipPath><clipPath id="ea9771b5cb"><path d="M 77.585938 155.910156 L 133.039062 155.910156 L 133.039062 218.910156 L 77.585938 218.910156 Z M 77.585938 155.910156 "/></clipPath></defs><g id="7d1962150b"><g clip-rule="nonzero" clip-path="url(#ce52802951)"><path style=" stroke:none;fill-rule:nonzero;fill:#aecde2;fill-opacity:1;" d="M 49.960938 187.207031 L 31.511719 187.207031 L 22.265625 203.21875 L 31.511719 219.195312 L 49.960938 219.195312 L 59.203125 203.21875 L 49.960938 187.207031 "/></g><g clip-rule="nonzero" clip-path="url(#bf1c719c5b)"><path style=" stroke:none;fill-rule:nonzero;fill:#86c7ed;fill-opacity:1;" d="M 90.292969 193.117188 L 90.296875 193.117188 L 89.675781 192.039062 L 86.894531 187.207031 L 86.882812 187.207031 L 74.457031 165.699219 L 74.453125 165.699219 L 68.410156 155.253906 L 49.960938 155.253906 L 40.71875 171.230469 L 46.9375 181.984375 L 62.164062 208.355469 L 68.410156 219.195312 L 86.894531 219.195312 L 96.101562 203.21875 L 90.292969 193.117188 "/></g><g clip-rule="nonzero" clip-path="url(#ea9771b5cb)"><path style=" stroke:none;fill-rule:nonzero;fill:#1836b2;fill-opacity:1;" d="M 126.761719 192.339844 L 126.785156 192.324219 L 110.980469 164.90625 L 110.945312 164.929688 L 105.347656 155.253906 L 86.894531 155.253906 L 77.652344 171.230469 L 86.894531 187.207031 L 86.902344 187.207031 L 96.132812 203.171875 L 96.101562 203.21875 L 105.347656 219.195312 L 123.796875 219.195312 L 133.039062 203.21875 L 126.761719 192.339844 "/></g><g style="fill:#252c39;fill-opacity:1;"><g transform="translate(146.714688, 187.658191)"><path style="stroke:none" d="M 26.78125 0 L 20.40625 0 L 20.09375 -9.0625 L 20.0625 -10.5625 C 20.007812 -11.96875 19.984375 -13.03125 19.984375 -13.75 C 19.984375 -15.5 20.050781 -17.25 20.1875 -19 L 16.875 -2.515625 L 10.75 -2.515625 L 7.203125 -19 C 7.421875 -16.269531 7.53125 -13.867188 7.53125 -11.796875 C 7.53125 -10.609375 7.515625 -9.695312 7.484375 -9.0625 L 7.203125 0 L 0.84375 0 L 2.625 -24.328125 L 10.671875 -24.328125 L 13.9375 -8.1875 L 16.875 -24.328125 L 24.953125 -24.328125 Z M 26.78125 0 "/></g></g><g style="fill:#252c39;fill-opacity:1;"><g transform="translate(174.323454, 187.658191)"><path style="stroke:none" d="M 12.078125 -24.953125 C 15.597656 -24.953125 18.335938 -23.832031 20.296875 -21.59375 C 22.253906 -19.351562 23.234375 -16.21875 23.234375 -12.1875 C 23.234375 -9.539062 22.796875 -7.253906 21.921875 -5.328125 C 21.046875 -3.410156 19.769531 -1.9375 18.09375 -0.90625 C 16.414062 0.113281 14.410156 0.625 12.078125 0.625 C 8.554688 0.625 5.816406 -0.492188 3.859375 -2.734375 C 1.910156 -4.972656 0.9375 -8.125 0.9375 -12.1875 C 0.9375 -14.820312 1.375 -17.09375 2.25 -19 C 3.125 -20.914062 4.394531 -22.382812 6.0625 -23.40625 C 7.738281 -24.4375 9.742188 -24.953125 12.078125 -24.953125 Z M 12.078125 -20.296875 C 10.554688 -20.296875 9.441406 -19.664062 8.734375 -18.40625 C 8.023438 -17.144531 7.671875 -15.070312 7.671875 -12.1875 C 7.671875 -9.289062 8.03125 -7.207031 8.75 -5.9375 C 9.46875 -4.664062 10.578125 -4.03125 12.078125 -4.03125 C 13.617188 -4.03125 14.738281 -4.660156 15.4375 -5.921875 C 16.132812 -7.179688 16.484375 -9.269531 16.484375 -12.1875 C 16.484375 -15.070312 16.132812 -17.144531 15.4375 -18.40625 C 14.738281 -19.664062 13.617188 -20.296875 12.078125 -20.296875 Z M 12.078125 -20.296875 "/></g></g><g style="fill:#252c39;fill-opacity:1;"><g transform="translate(198.468003, 187.658191)"><path style="stroke:none" d="M 21.109375 0 L 12.953125 0 L 6.796875 -18.3125 L 6.890625 -17.5625 C 7.128906 -15.957031 7.3125 -14.445312 7.4375 -13.03125 C 7.5625 -11.625 7.625 -10.019531 7.625 -8.21875 L 7.625 0 L 1.890625 0 L 1.890625 -24.328125 L 9.875 -24.328125 L 16.234375 -5.953125 C 15.953125 -7.703125 15.734375 -9.273438 15.578125 -10.671875 C 15.429688 -12.078125 15.359375 -13.6875 15.359375 -15.5 L 15.359375 -24.328125 L 21.109375 -24.328125 Z M 21.109375 0 "/></g></g><g style="fill:#252c39;fill-opacity:1;"><g transform="translate(221.457809, 187.658191)"><path style="stroke:none" d="M 12.078125 -24.953125 C 15.597656 -24.953125 18.335938 -23.832031 20.296875 -21.59375 C 22.253906 -19.351562 23.234375 -16.21875 23.234375 -12.1875 C 23.234375 -9.539062 22.796875 -7.253906 21.921875 -5.328125 C 21.046875 -3.410156 19.769531 -1.9375 18.09375 -0.90625 C 16.414062 0.113281 14.410156 0.625 12.078125 0.625 C 8.554688 0.625 5.816406 -0.492188 3.859375 -2.734375 C 1.910156 -4.972656 0.9375 -8.125 0.9375 -12.1875 C 0.9375 -14.820312 1.375 -17.09375 2.25 -19 C 3.125 -20.914062 4.394531 -22.382812 6.0625 -23.40625 C 7.738281 -24.4375 9.742188 -24.953125 12.078125 -24.953125 Z M 12.078125 -20.296875 C 10.554688 -20.296875 9.441406 -19.664062 8.734375 -18.40625 C 8.023438 -17.144531 7.671875 -15.070312 7.671875 -12.1875 C 7.671875 -9.289062 8.03125 -7.207031 8.75 -5.9375 C 9.46875 -4.664062 10.578125 -4.03125 12.078125 -4.03125 C 13.617188 -4.03125 14.738281 -4.660156 15.4375 -5.921875 C 16.132812 -7.179688 16.484375 -9.269531 16.484375 -12.1875 C 16.484375 -15.070312 16.132812 -17.144531 15.4375 -18.40625 C 14.738281 -19.664062 13.617188 -20.296875 12.078125 -20.296875 Z M 12.078125 -20.296875 "/></g></g><g style="fill:#252c39;fill-opacity:1;"><g transform="translate(245.602357, 187.658191)"><path style="stroke:none" d="M 10.296875 -24.953125 C 12.140625 -24.953125 13.765625 -24.679688 15.171875 -24.140625 C 16.585938 -23.609375 17.851562 -22.804688 18.96875 -21.734375 L 16.0625 -18.3125 C 14.382812 -19.632812 12.625 -20.296875 10.78125 -20.296875 C 9.820312 -20.296875 9.09375 -20.113281 8.59375 -19.75 C 8.09375 -19.394531 7.84375 -18.890625 7.84375 -18.234375 C 7.84375 -17.765625 7.96875 -17.378906 8.21875 -17.078125 C 8.476562 -16.773438 8.910156 -16.484375 9.515625 -16.203125 C 10.128906 -15.921875 11.085938 -15.570312 12.390625 -15.15625 C 14.890625 -14.363281 16.710938 -13.363281 17.859375 -12.15625 C 19.015625 -10.957031 19.59375 -9.296875 19.59375 -7.171875 C 19.59375 -5.628906 19.195312 -4.269531 18.40625 -3.09375 C 17.613281 -1.914062 16.460938 -1 14.953125 -0.34375 C 13.453125 0.300781 11.6875 0.625 9.65625 0.625 C 5.78125 0.625 2.617188 -0.550781 0.171875 -2.90625 L 3.359375 -6.4375 C 5.296875 -4.851562 7.316406 -4.0625 9.421875 -4.0625 C 10.515625 -4.0625 11.363281 -4.300781 11.96875 -4.78125 C 12.570312 -5.257812 12.875 -5.894531 12.875 -6.6875 C 12.875 -7.25 12.757812 -7.707031 12.53125 -8.0625 C 12.300781 -8.425781 11.882812 -8.753906 11.28125 -9.046875 C 10.6875 -9.335938 9.820312 -9.660156 8.6875 -10.015625 C 5.925781 -10.878906 3.984375 -11.914062 2.859375 -13.125 C 1.742188 -14.332031 1.1875 -15.859375 1.1875 -17.703125 C 1.1875 -19.148438 1.578125 -20.421875 2.359375 -21.515625 C 3.140625 -22.617188 4.222656 -23.46875 5.609375 -24.0625 C 7.003906 -24.65625 8.566406 -24.953125 10.296875 -24.953125 Z M 10.296875 -24.953125 "/></g></g><g style="fill:#252c39;fill-opacity:1;"><g transform="translate(265.897778, 187.658191)"><path style="stroke:none" d="M 19.21875 -24.328125 L 18.546875 -19.390625 L 12.8125 -19.390625 L 12.8125 0 L 6.328125 0 L 6.328125 -19.390625 L 0.25 -19.390625 L 0.25 -24.328125 Z M 19.21875 -24.328125 "/></g></g><g style="fill:#252c39;fill-opacity:1;"><g transform="translate(285.038455, 187.658191)"><path style="stroke:none" d="M 12.078125 -24.953125 C 15.597656 -24.953125 18.335938 -23.832031 20.296875 -21.59375 C 22.253906 -19.351562 23.234375 -16.21875 23.234375 -12.1875 C 23.234375 -9.539062 22.796875 -7.253906 21.921875 -5.328125 C 21.046875 -3.410156 19.769531 -1.9375 18.09375 -0.90625 C 16.414062 0.113281 14.410156 0.625 12.078125 0.625 C 8.554688 0.625 5.816406 -0.492188 3.859375 -2.734375 C 1.910156 -4.972656 0.9375 -8.125 0.9375 -12.1875 C 0.9375 -14.820312 1.375 -17.09375 2.25 -19 C 3.125 -20.914062 4.394531 -22.382812 6.0625 -23.40625 C 7.738281 -24.4375 9.742188 -24.953125 12.078125 -24.953125 Z M 12.078125 -20.296875 C 10.554688 -20.296875 9.441406 -19.664062 8.734375 -18.40625 C 8.023438 -17.144531 7.671875 -15.070312 7.671875 -12.1875 C 7.671875 -9.289062 8.03125 -7.207031 8.75 -5.9375 C 9.46875 -4.664062 10.578125 -4.03125 12.078125 -4.03125 C 13.617188 -4.03125 14.738281 -4.660156 15.4375 -5.921875 C 16.132812 -7.179688 16.484375 -9.269531 16.484375 -12.1875 C 16.484375 -15.070312 16.132812 -17.144531 15.4375 -18.40625 C 14.738281 -19.664062 13.617188 -20.296875 12.078125 -20.296875 Z M 12.078125 -20.296875 "/></g></g><g style="fill:#252c39;fill-opacity:1;"><g transform="translate(309.183004, 187.658191)"><path style="stroke:none" d="M 10.15625 -8.953125 L 8.359375 -8.953125 L 8.359375 0 L 1.890625 0 L 1.890625 -24.328125 L 10.328125 -24.328125 C 13.753906 -24.328125 16.3125 -23.707031 18 -22.46875 C 19.695312 -21.226562 20.546875 -19.328125 20.546875 -16.765625 C 20.546875 -15.222656 20.1875 -13.9375 19.46875 -12.90625 C 18.757812 -11.882812 17.625 -10.96875 16.0625 -10.15625 L 22.125 0 L 14.90625 0 Z M 8.359375 -13.375 L 10.53125 -13.375 C 12.769531 -13.375 13.890625 -14.503906 13.890625 -16.765625 C 13.890625 -17.816406 13.582031 -18.585938 12.96875 -19.078125 C 12.351562 -19.566406 11.425781 -19.8125 10.1875 -19.8125 L 8.359375 -19.8125 Z M 8.359375 -13.375 "/></g></g><g style="fill:#252c39;fill-opacity:1;"><g transform="translate(330.878106, 187.658191)"><path style="stroke:none" d="M 17.328125 -24.328125 L 16.65625 -19.734375 L 8.359375 -19.734375 L 8.359375 -14.5625 L 15.609375 -14.5625 L 15.609375 -10.109375 L 8.359375 -10.109375 L 8.359375 -4.578125 L 17.21875 -4.578125 L 17.21875 0 L 1.890625 0 L 1.890625 -24.328125 Z M 17.328125 -24.328125 "/></g></g><g style="fill:#252c39;fill-opacity:1;"><g transform="translate(146.714688, 214.779946)"><path style="stroke:none" d="M 3.46875 -10.9375 L 3.46875 0 L 1.15625 0 L 1.15625 -10.9375 Z M 3.46875 -10.9375 "/></g></g><g style="fill:#252c39;fill-opacity:1;"><g transform="translate(151.355518, 214.779946)"><path style="stroke:none" d="M 5.78125 -8.625 C 6.519531 -8.625 7.09375 -8.398438 7.5 -7.953125 C 7.914062 -7.503906 8.125 -6.882812 8.125 -6.09375 L 8.125 0 L 5.875 0 L 5.875 -5.71875 C 5.875 -6.164062 5.796875 -6.484375 5.640625 -6.671875 C 5.492188 -6.859375 5.265625 -6.953125 4.953125 -6.953125 C 4.640625 -6.953125 4.351562 -6.851562 4.09375 -6.65625 C 3.84375 -6.457031 3.59375 -6.164062 3.34375 -5.78125 L 3.34375 0 L 1.109375 0 L 1.109375 -8.375 L 3.046875 -8.375 L 3.21875 -7.3125 C 3.570312 -7.75 3.953125 -8.078125 4.359375 -8.296875 C 4.773438 -8.515625 5.25 -8.625 5.78125 -8.625 Z M 5.78125 -8.625 "/></g></g><g style="fill:#252c39;fill-opacity:1;"><g transform="translate(160.495124, 214.779946)"><path style="stroke:none" d="M 5.78125 -8.625 C 6.519531 -8.625 7.09375 -8.398438 7.5 -7.953125 C 7.914062 -7.503906 8.125 -6.882812 8.125 -6.09375 L 8.125 0 L 5.875 0 L 5.875 -5.71875 C 5.875 -6.164062 5.796875 -6.484375 5.640625 -6.671875 C 5.492188 -6.859375 5.265625 -6.953125 4.953125 -6.953125 C 4.640625 -6.953125 4.351562 -6.851562 4.09375 -6.65625 C 3.84375 -6.457031 3.59375 -6.164062 3.34375 -5.78125 L 3.34375 0 L 1.109375 0 L 1.109375 -8.375 L 3.046875 -8.375 L 3.21875 -7.3125 C 3.570312 -7.75 3.953125 -8.078125 4.359375 -8.296875 C 4.773438 -8.515625 5.25 -8.625 5.78125 -8.625 Z M 5.78125 -8.625 "/></g></g><g style="fill:#252c39;fill-opacity:1;"><g transform="translate(169.63473, 214.779946)"><path style="stroke:none" d="M 4.625 -8.625 C 5.882812 -8.625 6.863281 -8.226562 7.5625 -7.4375 C 8.269531 -6.65625 8.625 -5.570312 8.625 -4.1875 C 8.625 -3.300781 8.460938 -2.523438 8.140625 -1.859375 C 7.816406 -1.191406 7.351562 -0.671875 6.75 -0.296875 C 6.144531 0.0664062 5.429688 0.25 4.609375 0.25 C 3.359375 0.25 2.375 -0.140625 1.65625 -0.921875 C 0.945312 -1.703125 0.59375 -2.789062 0.59375 -4.1875 C 0.59375 -5.070312 0.753906 -5.847656 1.078125 -6.515625 C 1.398438 -7.179688 1.863281 -7.695312 2.46875 -8.0625 C 3.070312 -8.4375 3.789062 -8.625 4.625 -8.625 Z M 4.625 -6.953125 C 4.0625 -6.953125 3.640625 -6.726562 3.359375 -6.28125 C 3.078125 -5.832031 2.9375 -5.132812 2.9375 -4.1875 C 2.9375 -3.238281 3.078125 -2.539062 3.359375 -2.09375 C 3.640625 -1.644531 4.054688 -1.421875 4.609375 -1.421875 C 5.171875 -1.421875 5.585938 -1.644531 5.859375 -2.09375 C 6.140625 -2.539062 6.28125 -3.238281 6.28125 -4.1875 C 6.28125 -5.132812 6.144531 -5.832031 5.875 -6.28125 C 5.601562 -6.726562 5.1875 -6.953125 4.625 -6.953125 Z M 4.625 -6.953125 "/></g></g><g style="fill:#252c39;fill-opacity:1;"><g transform="translate(178.853266, 214.779946)"><path style="stroke:none" d="M 8.0625 -8.375 L 5.375 0 L 2.703125 0 L -0.03125 -8.375 L 2.40625 -8.375 L 4.0625 -1.75 L 5.75 -8.375 Z M 8.0625 -8.375 "/></g></g><g style="fill:#252c39;fill-opacity:1;"><g transform="translate(186.872129, 214.779946)"><path style="stroke:none" d="M 7.5 -2.328125 C 7.5 -1.992188 7.546875 -1.75 7.640625 -1.59375 C 7.734375 -1.445312 7.894531 -1.335938 8.125 -1.265625 L 7.640625 0.21875 C 7.148438 0.175781 6.75 0.0625 6.4375 -0.125 C 6.125 -0.3125 5.882812 -0.609375 5.71875 -1.015625 C 5.164062 -0.171875 4.328125 0.25 3.203125 0.25 C 2.367188 0.25 1.707031 0.0078125 1.21875 -0.46875 C 0.726562 -0.945312 0.484375 -1.570312 0.484375 -2.34375 C 0.484375 -3.257812 0.816406 -3.957031 1.484375 -4.4375 C 2.148438 -4.925781 3.101562 -5.171875 4.34375 -5.171875 L 5.3125 -5.171875 L 5.3125 -5.578125 C 5.3125 -6.085938 5.191406 -6.441406 4.953125 -6.640625 C 4.722656 -6.847656 4.34375 -6.953125 3.8125 -6.953125 C 3.21875 -6.953125 2.476562 -6.804688 1.59375 -6.515625 L 1.09375 -8.015625 C 2.132812 -8.421875 3.164062 -8.625 4.1875 -8.625 C 5.320312 -8.625 6.15625 -8.378906 6.6875 -7.890625 C 7.226562 -7.398438 7.5 -6.671875 7.5 -5.703125 Z M 3.828125 -1.359375 C 4.453125 -1.359375 4.945312 -1.671875 5.3125 -2.296875 L 5.3125 -3.890625 L 4.5625 -3.890625 C 3.351562 -3.890625 2.75 -3.4375 2.75 -2.53125 C 2.75 -2.15625 2.835938 -1.863281 3.015625 -1.65625 C 3.203125 -1.457031 3.472656 -1.359375 3.828125 -1.359375 Z M 3.828125 -1.359375 "/></g></g><g style="fill:#252c39;fill-opacity:1;"><g transform="translate(195.506604, 214.779946)"><path style="stroke:none" d="M 6.109375 -0.390625 C 5.804688 -0.179688 5.460938 -0.0234375 5.078125 0.078125 C 4.691406 0.191406 4.3125 0.25 3.9375 0.25 C 3.070312 0.238281 2.414062 -0.00390625 1.96875 -0.484375 C 1.53125 -0.972656 1.3125 -1.6875 1.3125 -2.625 L 1.3125 -6.796875 L 0.0625 -6.796875 L 0.0625 -8.375 L 1.3125 -8.375 L 1.3125 -10.203125 L 3.546875 -10.46875 L 3.546875 -8.375 L 5.484375 -8.375 L 5.265625 -6.796875 L 3.546875 -6.796875 L 3.546875 -2.671875 C 3.546875 -2.265625 3.613281 -1.972656 3.75 -1.796875 C 3.894531 -1.617188 4.109375 -1.53125 4.390625 -1.53125 C 4.671875 -1.53125 4.988281 -1.625 5.34375 -1.8125 Z M 6.109375 -0.390625 "/></g></g><g style="fill:#252c39;fill-opacity:1;"><g transform="translate(201.504967, 214.779946)"><path style="stroke:none" d="M 3.34375 -8.375 L 3.34375 0 L 1.109375 0 L 1.109375 -8.375 Z M 2.21875 -12.6875 C 2.613281 -12.6875 2.941406 -12.5625 3.203125 -12.3125 C 3.460938 -12.0625 3.59375 -11.75 3.59375 -11.375 C 3.59375 -11 3.460938 -10.6875 3.203125 -10.4375 C 2.941406 -10.1875 2.613281 -10.0625 2.21875 -10.0625 C 1.8125 -10.0625 1.484375 -10.1875 1.234375 -10.4375 C 0.984375 -10.6875 0.859375 -11 0.859375 -11.375 C 0.859375 -11.75 0.984375 -12.0625 1.234375 -12.3125 C 1.484375 -12.5625 1.8125 -12.6875 2.21875 -12.6875 Z M 2.21875 -12.6875 "/></g></g><g style="fill:#252c39;fill-opacity:1;"><g transform="translate(205.956387, 214.779946)"><path style="stroke:none" d="M 8.0625 -8.375 L 5.375 0 L 2.703125 0 L -0.03125 -8.375 L 2.40625 -8.375 L 4.0625 -1.75 L 5.75 -8.375 Z M 8.0625 -8.375 "/></g></g><g style="fill:#252c39;fill-opacity:1;"><g transform="translate(213.97525, 214.779946)"><path style="stroke:none" d="M 8.1875 -4.375 C 8.1875 -4.269531 8.171875 -3.976562 8.140625 -3.5 L 2.90625 -3.5 C 2.976562 -2.75 3.179688 -2.210938 3.515625 -1.890625 C 3.859375 -1.578125 4.316406 -1.421875 4.890625 -1.421875 C 5.253906 -1.421875 5.59375 -1.476562 5.90625 -1.59375 C 6.21875 -1.707031 6.5625 -1.890625 6.9375 -2.140625 L 7.859375 -0.890625 C 6.921875 -0.128906 5.863281 0.25 4.6875 0.25 C 3.375 0.25 2.363281 -0.140625 1.65625 -0.921875 C 0.945312 -1.710938 0.59375 -2.785156 0.59375 -4.140625 C 0.59375 -4.992188 0.742188 -5.757812 1.046875 -6.4375 C 1.347656 -7.113281 1.785156 -7.644531 2.359375 -8.03125 C 2.929688 -8.425781 3.613281 -8.625 4.40625 -8.625 C 5.59375 -8.625 6.519531 -8.25 7.1875 -7.5 C 7.851562 -6.75 8.1875 -5.707031 8.1875 -4.375 Z M 5.953125 -5 C 5.953125 -6.394531 5.453125 -7.09375 4.453125 -7.09375 C 3.992188 -7.09375 3.632812 -6.921875 3.375 -6.578125 C 3.113281 -6.234375 2.957031 -5.675781 2.90625 -4.90625 L 5.953125 -4.90625 Z M 5.953125 -5 "/></g></g><g style="fill:#252c39;fill-opacity:1;"><g transform="translate(222.672874, 214.779946)"><path style="stroke:none" d=""/></g></g><g style="fill:#252c39;fill-opacity:1;"><g transform="translate(226.524451, 214.779946)"><path style="stroke:none" d="M 3.34375 -8.375 L 3.34375 0 L 1.109375 0 L 1.109375 -8.375 Z M 2.21875 -12.6875 C 2.613281 -12.6875 2.941406 -12.5625 3.203125 -12.3125 C 3.460938 -12.0625 3.59375 -11.75 3.59375 -11.375 C 3.59375 -11 3.460938 -10.6875 3.203125 -10.4375 C 2.941406 -10.1875 2.613281 -10.0625 2.21875 -10.0625 C 1.8125 -10.0625 1.484375 -10.1875 1.234375 -10.4375 C 0.984375 -10.6875 0.859375 -11 0.859375 -11.375 C 0.859375 -11.75 0.984375 -12.0625 1.234375 -12.3125 C 1.484375 -12.5625 1.8125 -12.6875 2.21875 -12.6875 Z M 2.21875 -12.6875 "/></g></g><g style="fill:#252c39;fill-opacity:1;"><g transform="translate(230.975871, 214.779946)"><path style="stroke:none" d="M 8.359375 -11.703125 L 8.359375 0 L 6.375 0 L 6.25 -1.03125 C 5.664062 -0.175781 4.867188 0.25 3.859375 0.25 C 2.828125 0.25 2.035156 -0.144531 1.484375 -0.9375 C 0.941406 -1.726562 0.671875 -2.8125 0.671875 -4.1875 C 0.671875 -5.050781 0.8125 -5.816406 1.09375 -6.484375 C 1.375 -7.148438 1.769531 -7.671875 2.28125 -8.046875 C 2.800781 -8.429688 3.398438 -8.625 4.078125 -8.625 C 4.859375 -8.625 5.535156 -8.34375 6.109375 -7.78125 L 6.109375 -11.953125 Z M 4.515625 -1.421875 C 4.835938 -1.421875 5.125 -1.5 5.375 -1.65625 C 5.632812 -1.820312 5.878906 -2.082031 6.109375 -2.4375 L 6.109375 -6.171875 C 5.890625 -6.441406 5.664062 -6.640625 5.4375 -6.765625 C 5.21875 -6.898438 4.957031 -6.96875 4.65625 -6.96875 C 4.144531 -6.96875 3.742188 -6.738281 3.453125 -6.28125 C 3.160156 -5.832031 3.015625 -5.132812 3.015625 -4.1875 C 3.015625 -3.1875 3.144531 -2.472656 3.40625 -2.046875 C 3.664062 -1.628906 4.035156 -1.421875 4.515625 -1.421875 Z M 4.515625 -1.421875 "/></g></g><g style="fill:#252c39;fill-opacity:1;"><g transform="translate(240.431185, 214.779946)"><path style="stroke:none" d="M 8.1875 -4.375 C 8.1875 -4.269531 8.171875 -3.976562 8.140625 -3.5 L 2.90625 -3.5 C 2.976562 -2.75 3.179688 -2.210938 3.515625 -1.890625 C 3.859375 -1.578125 4.316406 -1.421875 4.890625 -1.421875 C 5.253906 -1.421875 5.59375 -1.476562 5.90625 -1.59375 C 6.21875 -1.707031 6.5625 -1.890625 6.9375 -2.140625 L 7.859375 -0.890625 C 6.921875 -0.128906 5.863281 0.25 4.6875 0.25 C 3.375 0.25 2.363281 -0.140625 1.65625 -0.921875 C 0.945312 -1.710938 0.59375 -2.785156 0.59375 -4.140625 C 0.59375 -4.992188 0.742188 -5.757812 1.046875 -6.4375 C 1.347656 -7.113281 1.785156 -7.644531 2.359375 -8.03125 C 2.929688 -8.425781 3.613281 -8.625 4.40625 -8.625 C 5.59375 -8.625 6.519531 -8.25 7.1875 -7.5 C 7.851562 -6.75 8.1875 -5.707031 8.1875 -4.375 Z M 5.953125 -5 C 5.953125 -6.394531 5.453125 -7.09375 4.453125 -7.09375 C 3.992188 -7.09375 3.632812 -6.921875 3.375 -6.578125 C 3.113281 -6.234375 2.957031 -5.675781 2.90625 -4.90625 L 5.953125 -4.90625 Z M 5.953125 -5 "/></g></g><g style="fill:#252c39;fill-opacity:1;"><g transform="translate(249.128808, 214.779946)"><path style="stroke:none" d="M 7.5 -2.328125 C 7.5 -1.992188 7.546875 -1.75 7.640625 -1.59375 C 7.734375 -1.445312 7.894531 -1.335938 8.125 -1.265625 L 7.640625 0.21875 C 7.148438 0.175781 6.75 0.0625 6.4375 -0.125 C 6.125 -0.3125 5.882812 -0.609375 5.71875 -1.015625 C 5.164062 -0.171875 4.328125 0.25 3.203125 0.25 C 2.367188 0.25 1.707031 0.0078125 1.21875 -0.46875 C 0.726562 -0.945312 0.484375 -1.570312 0.484375 -2.34375 C 0.484375 -3.257812 0.816406 -3.957031 1.484375 -4.4375 C 2.148438 -4.925781 3.101562 -5.171875 4.34375 -5.171875 L 5.3125 -5.171875 L 5.3125 -5.578125 C 5.3125 -6.085938 5.191406 -6.441406 4.953125 -6.640625 C 4.722656 -6.847656 4.34375 -6.953125 3.8125 -6.953125 C 3.21875 -6.953125 2.476562 -6.804688 1.59375 -6.515625 L 1.09375 -8.015625 C 2.132812 -8.421875 3.164062 -8.625 4.1875 -8.625 C 5.320312 -8.625 6.15625 -8.378906 6.6875 -7.890625 C 7.226562 -7.398438 7.5 -6.671875 7.5 -5.703125 Z M 3.828125 -1.359375 C 4.453125 -1.359375 4.945312 -1.671875 5.3125 -2.296875 L 5.3125 -3.890625 L 4.5625 -3.890625 C 3.351562 -3.890625 2.75 -3.4375 2.75 -2.53125 C 2.75 -2.15625 2.835938 -1.863281 3.015625 -1.65625 C 3.203125 -1.457031 3.472656 -1.359375 3.828125 -1.359375 Z M 3.828125 -1.359375 "/></g></g><g style="fill:#252c39;fill-opacity:1;"><g transform="translate(257.763283, 214.779946)"><path style="stroke:none" d="M 3.890625 -8.625 C 5.066406 -8.625 6.078125 -8.285156 6.921875 -7.609375 L 6.0625 -6.328125 C 5.351562 -6.773438 4.660156 -7 3.984375 -7 C 3.609375 -7 3.320312 -6.929688 3.125 -6.796875 C 2.925781 -6.660156 2.828125 -6.472656 2.828125 -6.234375 C 2.828125 -6.066406 2.867188 -5.925781 2.953125 -5.8125 C 3.046875 -5.695312 3.21875 -5.585938 3.46875 -5.484375 C 3.71875 -5.378906 4.085938 -5.253906 4.578125 -5.109375 C 5.460938 -4.859375 6.117188 -4.53125 6.546875 -4.125 C 6.984375 -3.71875 7.203125 -3.164062 7.203125 -2.46875 C 7.203125 -1.90625 7.039062 -1.414062 6.71875 -1 C 6.394531 -0.59375 5.957031 -0.28125 5.40625 -0.0625 C 4.863281 0.144531 4.253906 0.25 3.578125 0.25 C 2.878906 0.25 2.238281 0.144531 1.65625 -0.0625 C 1.082031 -0.28125 0.585938 -0.582031 0.171875 -0.96875 L 1.28125 -2.203125 C 1.988281 -1.648438 2.734375 -1.375 3.515625 -1.375 C 3.941406 -1.375 4.273438 -1.453125 4.515625 -1.609375 C 4.765625 -1.773438 4.890625 -2.003906 4.890625 -2.296875 C 4.890625 -2.515625 4.84375 -2.6875 4.75 -2.8125 C 4.65625 -2.9375 4.484375 -3.050781 4.234375 -3.15625 C 3.984375 -3.269531 3.585938 -3.398438 3.046875 -3.546875 C 2.203125 -3.785156 1.578125 -4.117188 1.171875 -4.546875 C 0.765625 -4.972656 0.5625 -5.5 0.5625 -6.125 C 0.5625 -6.601562 0.695312 -7.03125 0.96875 -7.40625 C 1.25 -7.789062 1.640625 -8.085938 2.140625 -8.296875 C 2.640625 -8.515625 3.222656 -8.625 3.890625 -8.625 Z M 3.890625 -8.625 "/></g></g><g style="fill:#252c39;fill-opacity:1;"><g transform="translate(265.324372, 214.779946)"><path style="stroke:none" d=""/></g></g><g style="fill:#252c39;fill-opacity:1;"><g transform="translate(269.175949, 214.779946)"><path style="stroke:none" d="M 3.34375 -8.375 L 3.34375 0 L 1.109375 0 L 1.109375 -8.375 Z M 2.21875 -12.6875 C 2.613281 -12.6875 2.941406 -12.5625 3.203125 -12.3125 C 3.460938 -12.0625 3.59375 -11.75 3.59375 -11.375 C 3.59375 -11 3.460938 -10.6875 3.203125 -10.4375 C 2.941406 -10.1875 2.613281 -10.0625 2.21875 -10.0625 C 1.8125 -10.0625 1.484375 -10.1875 1.234375 -10.4375 C 0.984375 -10.6875 0.859375 -11 0.859375 -11.375 C 0.859375 -11.75 0.984375 -12.0625 1.234375 -12.3125 C 1.484375 -12.5625 1.8125 -12.6875 2.21875 -12.6875 Z M 2.21875 -12.6875 "/></g></g><g style="fill:#252c39;fill-opacity:1;"><g transform="translate(273.627369, 214.779946)"><path style="stroke:none" d="M 5.78125 -8.625 C 6.519531 -8.625 7.09375 -8.398438 7.5 -7.953125 C 7.914062 -7.503906 8.125 -6.882812 8.125 -6.09375 L 8.125 0 L 5.875 0 L 5.875 -5.71875 C 5.875 -6.164062 5.796875 -6.484375 5.640625 -6.671875 C 5.492188 -6.859375 5.265625 -6.953125 4.953125 -6.953125 C 4.640625 -6.953125 4.351562 -6.851562 4.09375 -6.65625 C 3.84375 -6.457031 3.59375 -6.164062 3.34375 -5.78125 L 3.34375 0 L 1.109375 0 L 1.109375 -8.375 L 3.046875 -8.375 L 3.21875 -7.3125 C 3.570312 -7.75 3.953125 -8.078125 4.359375 -8.296875 C 4.773438 -8.515625 5.25 -8.625 5.78125 -8.625 Z M 5.78125 -8.625 "/></g></g><g style="fill:#252c39;fill-opacity:1;"><g transform="translate(282.766974, 214.779946)"><path style="stroke:none" d=""/></g></g><g style="fill:#252c39;fill-opacity:1;"><g transform="translate(286.618552, 214.779946)"><path style="stroke:none" d="M 7.5 -2.328125 C 7.5 -1.992188 7.546875 -1.75 7.640625 -1.59375 C 7.734375 -1.445312 7.894531 -1.335938 8.125 -1.265625 L 7.640625 0.21875 C 7.148438 0.175781 6.75 0.0625 6.4375 -0.125 C 6.125 -0.3125 5.882812 -0.609375 5.71875 -1.015625 C 5.164062 -0.171875 4.328125 0.25 3.203125 0.25 C 2.367188 0.25 1.707031 0.0078125 1.21875 -0.46875 C 0.726562 -0.945312 0.484375 -1.570312 0.484375 -2.34375 C 0.484375 -3.257812 0.816406 -3.957031 1.484375 -4.4375 C 2.148438 -4.925781 3.101562 -5.171875 4.34375 -5.171875 L 5.3125 -5.171875 L 5.3125 -5.578125 C 5.3125 -6.085938 5.191406 -6.441406 4.953125 -6.640625 C 4.722656 -6.847656 4.34375 -6.953125 3.8125 -6.953125 C 3.21875 -6.953125 2.476562 -6.804688 1.59375 -6.515625 L 1.09375 -8.015625 C 2.132812 -8.421875 3.164062 -8.625 4.1875 -8.625 C 5.320312 -8.625 6.15625 -8.378906 6.6875 -7.890625 C 7.226562 -7.398438 7.5 -6.671875 7.5 -5.703125 Z M 3.828125 -1.359375 C 4.453125 -1.359375 4.945312 -1.671875 5.3125 -2.296875 L 5.3125 -3.890625 L 4.5625 -3.890625 C 3.351562 -3.890625 2.75 -3.4375 2.75 -2.53125 C 2.75 -2.15625 2.835938 -1.863281 3.015625 -1.65625 C 3.203125 -1.457031 3.472656 -1.359375 3.828125 -1.359375 Z M 3.828125 -1.359375 "/></g></g><g style="fill:#252c39;fill-opacity:1;"><g transform="translate(295.253027, 214.779946)"><path style="stroke:none" d="M 4.59375 -8.625 C 5.15625 -8.625 5.660156 -8.539062 6.109375 -8.375 C 6.554688 -8.21875 6.976562 -7.960938 7.375 -7.609375 L 6.390625 -6.28125 C 6.117188 -6.5 5.851562 -6.65625 5.59375 -6.75 C 5.34375 -6.84375 5.0625 -6.890625 4.75 -6.890625 C 3.5625 -6.890625 2.96875 -5.972656 2.96875 -4.140625 C 2.96875 -3.210938 3.117188 -2.546875 3.421875 -2.140625 C 3.734375 -1.742188 4.171875 -1.546875 4.734375 -1.546875 C 5.035156 -1.546875 5.304688 -1.585938 5.546875 -1.671875 C 5.785156 -1.765625 6.066406 -1.914062 6.390625 -2.125 L 7.375 -0.734375 C 6.570312 -0.078125 5.65625 0.25 4.625 0.25 C 3.800781 0.25 3.085938 0.0703125 2.484375 -0.28125 C 1.878906 -0.644531 1.410156 -1.15625 1.078125 -1.8125 C 0.753906 -2.46875 0.59375 -3.238281 0.59375 -4.125 C 0.59375 -5.007812 0.753906 -5.789062 1.078125 -6.46875 C 1.410156 -7.144531 1.878906 -7.671875 2.484375 -8.046875 C 3.085938 -8.429688 3.789062 -8.625 4.59375 -8.625 Z M 4.59375 -8.625 "/></g></g><g style="fill:#252c39;fill-opacity:1;"><g transform="translate(302.798334, 214.779946)"><path style="stroke:none" d="M 6.109375 -0.390625 C 5.804688 -0.179688 5.460938 -0.0234375 5.078125 0.078125 C 4.691406 0.191406 4.3125 0.25 3.9375 0.25 C 3.070312 0.238281 2.414062 -0.00390625 1.96875 -0.484375 C 1.53125 -0.972656 1.3125 -1.6875 1.3125 -2.625 L 1.3125 -6.796875 L 0.0625 -6.796875 L 0.0625 -8.375 L 1.3125 -8.375 L 1.3125 -10.203125 L 3.546875 -10.46875 L 3.546875 -8.375 L 5.484375 -8.375 L 5.265625 -6.796875 L 3.546875 -6.796875 L 3.546875 -2.671875 C 3.546875 -2.265625 3.613281 -1.972656 3.75 -1.796875 C 3.894531 -1.617188 4.109375 -1.53125 4.390625 -1.53125 C 4.671875 -1.53125 4.988281 -1.625 5.34375 -1.8125 Z M 6.109375 -0.390625 "/></g></g><g style="fill:#252c39;fill-opacity:1;"><g transform="translate(308.796697, 214.779946)"><path style="stroke:none" d="M 3.34375 -8.375 L 3.34375 0 L 1.109375 0 L 1.109375 -8.375 Z M 2.21875 -12.6875 C 2.613281 -12.6875 2.941406 -12.5625 3.203125 -12.3125 C 3.460938 -12.0625 3.59375 -11.75 3.59375 -11.375 C 3.59375 -11 3.460938 -10.6875 3.203125 -10.4375 C 2.941406 -10.1875 2.613281 -10.0625 2.21875 -10.0625 C 1.8125 -10.0625 1.484375 -10.1875 1.234375 -10.4375 C 0.984375 -10.6875 0.859375 -11 0.859375 -11.375 C 0.859375 -11.75 0.984375 -12.0625 1.234375 -12.3125 C 1.484375 -12.5625 1.8125 -12.6875 2.21875 -12.6875 Z M 2.21875 -12.6875 "/></g></g><g style="fill:#252c39;fill-opacity:1;"><g transform="translate(313.248116, 214.779946)"><path style="stroke:none" d="M 4.625 -8.625 C 5.882812 -8.625 6.863281 -8.226562 7.5625 -7.4375 C 8.269531 -6.65625 8.625 -5.570312 8.625 -4.1875 C 8.625 -3.300781 8.460938 -2.523438 8.140625 -1.859375 C 7.816406 -1.191406 7.351562 -0.671875 6.75 -0.296875 C 6.144531 0.0664062 5.429688 0.25 4.609375 0.25 C 3.359375 0.25 2.375 -0.140625 1.65625 -0.921875 C 0.945312 -1.703125 0.59375 -2.789062 0.59375 -4.1875 C 0.59375 -5.070312 0.753906 -5.847656 1.078125 -6.515625 C 1.398438 -7.179688 1.863281 -7.695312 2.46875 -8.0625 C 3.070312 -8.4375 3.789062 -8.625 4.625 -8.625 Z M 4.625 -6.953125 C 4.0625 -6.953125 3.640625 -6.726562 3.359375 -6.28125 C 3.078125 -5.832031 2.9375 -5.132812 2.9375 -4.1875 C 2.9375 -3.238281 3.078125 -2.539062 3.359375 -2.09375 C 3.640625 -1.644531 4.054688 -1.421875 4.609375 -1.421875 C 5.171875 -1.421875 5.585938 -1.644531 5.859375 -2.09375 C 6.140625 -2.539062 6.28125 -3.238281 6.28125 -4.1875 C 6.28125 -5.132812 6.144531 -5.832031 5.875 -6.28125 C 5.601562 -6.726562 5.1875 -6.953125 4.625 -6.953125 Z M 4.625 -6.953125 "/></g></g><g style="fill:#252c39;fill-opacity:1;"><g transform="translate(322.466652, 214.779946)"><path style="stroke:none" d="M 5.78125 -8.625 C 6.519531 -8.625 7.09375 -8.398438 7.5 -7.953125 C 7.914062 -7.503906 8.125 -6.882812 8.125 -6.09375 L 8.125 0 L 5.875 0 L 5.875 -5.71875 C 5.875 -6.164062 5.796875 -6.484375 5.640625 -6.671875 C 5.492188 -6.859375 5.265625 -6.953125 4.953125 -6.953125 C 4.640625 -6.953125 4.351562 -6.851562 4.09375 -6.65625 C 3.84375 -6.457031 3.59375 -6.164062 3.34375 -5.78125 L 3.34375 0 L 1.109375 0 L 1.109375 -8.375 L 3.046875 -8.375 L 3.21875 -7.3125 C 3.570312 -7.75 3.953125 -8.078125 4.359375 -8.296875 C 4.773438 -8.515625 5.25 -8.625 5.78125 -8.625 Z M 5.78125 -8.625 "/></g></g></g></svg>