<svg width="383" height="242" viewBox="0 0 383 242" fill="none" xmlns="http://www.w3.org/2000/svg">
<mask id="mask0_764_462" style="mask-type:luminance" maskUnits="userSpaceOnUse" x="88" y="57" width="70" height="60">
<path d="M88.593 57.6953H157.218V116.914H88.593V57.6953Z" fill="white"/>
</mask>
<g mask="url(#mask0_764_462)">
<path d="M139.812 57.7578H105.687L88.593 87.3672L105.687 116.919H139.812L156.9 87.3672L139.812 57.7578Z" fill="#AECDE2"/>
</g>
<mask id="mask1_764_462" style="mask-type:luminance" maskUnits="userSpaceOnUse" x="122" y="0" width="104" height="117">
<path d="M122.27 0H225.213V116.917H122.27V0Z" fill="white"/>
</mask>
<g mask="url(#mask1_764_462)">
<path d="M214.406 68.6901L214.411 68.6849L213.26 66.6953L208.119 57.7578H208.093L185.114 17.9766L185.109 17.9818L173.932 -1.33594H139.812L122.713 28.2109L134.218 48.0964L162.38 96.8724L173.932 116.919H208.119L225.15 87.3672L214.406 68.6901Z" fill="#86C7ED"/>
</g>
<mask id="mask2_764_462" style="mask-type:luminance" maskUnits="userSpaceOnUse" x="190" y="0" width="104" height="117">
<path d="M190.979 0H293.458V116.917H190.979V0Z" fill="white"/>
</mask>
<g mask="url(#mask2_764_462)">
<path d="M281.848 67.2526L281.895 67.2266L252.661 16.5182L252.598 16.5599L242.244 -1.33594H208.119L191.025 28.2109L208.119 57.7578H208.13L225.202 87.2839L225.15 87.3672L242.244 116.919H276.364L293.458 87.3672L281.848 67.2526Z" fill="#1836B2"/>
</g>
<path d="M49.3958 193.661H37.2708L36.6667 176.391L36.6042 173.536C36.5052 170.87 36.4583 168.844 36.4583 167.453C36.4583 164.12 36.5885 160.786 36.8542 157.453L30.5208 188.87H18.8542L12.125 157.453C12.526 162.661 12.7292 167.245 12.7292 171.203C12.7292 173.469 12.7083 175.198 12.6667 176.391L12.125 193.661H0L3.39583 147.328H18.7292L24.9375 178.057L30.5208 147.328H45.9375L49.3958 193.661Z" fill="black"/>
<path d="M73.9876 146.117C80.696 146.117 85.9147 148.258 89.6543 152.534C93.3887 156.799 95.2585 162.773 95.2585 170.451C95.2585 175.482 94.4251 179.826 92.7585 183.492C91.0918 187.159 88.6543 189.971 85.446 191.93C82.248 193.888 78.4303 194.867 73.9876 194.867C67.2793 194.867 62.0605 192.737 58.3418 188.471C54.6335 184.195 52.7793 178.19 52.7793 170.451C52.7793 165.44 53.6126 161.112 55.2793 157.471C56.946 153.82 59.3678 151.013 62.5501 149.055C65.7272 147.096 69.5397 146.117 73.9876 146.117ZM73.9876 154.992C71.097 154.992 68.972 156.195 67.6126 158.596C66.2637 161.003 65.5918 164.951 65.5918 170.451C65.5918 175.966 66.2793 179.94 67.6543 182.367C69.0293 184.784 71.1387 185.992 73.9876 185.992C76.9147 185.992 79.0501 184.794 80.3835 182.388C81.7168 179.987 82.3835 176.008 82.3835 170.451C82.3835 164.951 81.7168 161.003 80.3835 158.596C79.0501 156.195 76.9147 154.992 73.9876 154.992Z" fill="black"/>
<path d="M137.189 193.661H121.647L109.918 158.786L110.106 160.203C110.548 163.26 110.897 166.135 111.147 168.828C111.397 171.526 111.522 174.578 111.522 177.995V193.661H100.585V147.328H115.772L127.918 182.328C127.376 178.995 126.96 175.995 126.668 173.328C126.387 170.661 126.251 167.594 126.251 164.12V147.328H137.189V193.661Z" fill="black"/>
<path d="M163.774 146.117C170.482 146.117 175.701 148.258 179.44 152.534C183.175 156.799 185.045 162.773 185.045 170.451C185.045 175.482 184.211 179.826 182.545 183.492C180.878 187.159 178.44 189.971 175.232 191.93C172.034 193.888 168.216 194.867 163.774 194.867C157.065 194.867 151.847 192.737 148.128 188.471C144.42 184.195 142.565 178.19 142.565 170.451C142.565 165.44 143.399 161.112 145.065 157.471C146.732 153.82 149.154 151.013 152.336 149.055C155.513 147.096 159.326 146.117 163.774 146.117ZM163.774 154.992C160.883 154.992 158.758 156.195 157.399 158.596C156.05 161.003 155.378 164.951 155.378 170.451C155.378 175.966 156.065 179.94 157.44 182.367C158.815 184.784 160.925 185.992 163.774 185.992C166.701 185.992 168.836 184.794 170.17 182.388C171.503 179.987 172.17 176.008 172.17 170.451C172.17 164.951 171.503 161.003 170.17 158.596C168.836 156.195 166.701 154.992 163.774 154.992Z" fill="black"/>
<path d="M206.371 146.117C209.881 146.117 212.98 146.633 215.663 147.659C218.355 148.69 220.767 150.221 222.892 152.263L217.371 158.784C214.163 156.258 210.808 154.992 207.308 154.992C205.475 154.992 204.079 155.341 203.121 156.034C202.173 156.716 201.704 157.68 201.704 158.93C201.704 159.82 201.944 160.555 202.433 161.138C202.918 161.711 203.736 162.263 204.892 162.805C206.058 163.336 207.881 163.992 210.371 164.784C215.121 166.299 218.59 168.201 220.788 170.492C222.996 172.784 224.1 175.951 224.1 179.992C224.1 182.924 223.34 185.513 221.829 187.763C220.314 190.003 218.126 191.742 215.267 192.992C212.402 194.242 209.038 194.867 205.163 194.867C197.788 194.867 191.767 192.617 187.1 188.117L193.163 181.388C196.855 184.419 200.704 185.93 204.704 185.93C206.788 185.93 208.402 185.482 209.558 184.576C210.725 183.659 211.308 182.445 211.308 180.93C211.308 179.862 211.084 178.987 210.642 178.305C210.194 177.612 209.402 176.987 208.267 176.43C207.126 175.878 205.475 175.263 203.308 174.596C198.058 172.945 194.361 170.966 192.225 168.659C190.1 166.357 189.038 163.445 189.038 159.93C189.038 157.169 189.777 154.742 191.267 152.659C192.751 150.576 194.814 148.966 197.454 147.826C200.105 146.69 203.079 146.117 206.371 146.117Z" fill="black"/>
<path d="M262.032 147.328L260.761 156.724H249.823V193.661H237.49V156.724H225.886V147.328H262.032Z" fill="black"/>
<path d="M284.888 146.117C291.597 146.117 296.815 148.258 300.555 152.534C304.289 156.799 306.159 162.773 306.159 170.451C306.159 175.482 305.326 179.826 303.659 183.492C301.993 187.159 299.555 189.971 296.347 191.93C293.149 193.888 289.331 194.867 284.888 194.867C278.18 194.867 272.961 192.737 269.243 188.471C265.534 184.195 263.68 178.19 263.68 170.451C263.68 165.44 264.513 161.112 266.18 157.471C267.847 153.82 270.269 151.013 273.451 149.055C276.628 147.096 280.44 146.117 284.888 146.117ZM284.888 154.992C281.998 154.992 279.873 156.195 278.513 158.596C277.164 161.003 276.493 164.951 276.493 170.451C276.493 175.966 277.18 179.94 278.555 182.367C279.93 184.784 282.039 185.992 284.888 185.992C287.815 185.992 289.951 184.794 291.284 182.388C292.618 179.987 293.284 176.008 293.284 170.451C293.284 164.951 292.618 161.003 291.284 158.596C289.951 156.195 287.815 154.992 284.888 154.992Z" fill="black"/>
<path d="M327.215 176.599H323.819V193.661H311.485V147.328H327.548C334.074 147.328 338.949 148.51 342.173 150.87C345.392 153.219 347.006 156.839 347.006 161.724C347.006 164.656 346.324 167.099 344.965 169.057C343.616 171.016 341.454 172.776 338.485 174.328L350.006 193.661H336.277L327.215 176.599ZM323.819 168.203H327.944C332.204 168.203 334.34 166.047 334.34 161.724C334.34 159.724 333.746 158.26 332.569 157.328C331.402 156.401 329.637 155.932 327.277 155.932H323.819V168.203Z" fill="black"/>
<path d="M382.208 147.328L380.937 156.057H365.146V165.932H378.937V174.391H365.146V184.932H382V193.661H352.812V147.328H382.208Z" fill="black"/>
<path d="M40.8333 222.641V241.057H37.3125V222.641H40.8333Z" fill="black"/>
<path d="M52.5661 226.555C53.8161 226.555 54.7953 226.93 55.5036 227.68C56.212 228.43 56.5661 229.487 56.5661 230.846V241.055H53.1495V231.367C53.1495 230.534 52.9932 229.951 52.6911 229.617C52.3995 229.284 51.9672 229.117 51.3995 229.117C50.8161 229.117 50.2849 229.299 49.8161 229.659C49.3422 230.023 48.8838 230.549 48.4411 231.242V241.055H45.0453V226.951H48.0036L48.2536 228.784C49.4203 227.299 50.8578 226.555 52.5661 226.555Z" fill="black"/>
<path d="M68.0533 226.555C69.3033 226.555 70.2825 226.93 70.9908 227.68C71.6991 228.43 72.0533 229.487 72.0533 230.846V241.055H68.6366V231.367C68.6366 230.534 68.4804 229.951 68.1783 229.617C67.8866 229.284 67.4543 229.117 66.8866 229.117C66.3033 229.117 65.7721 229.299 65.3033 229.659C64.8293 230.023 64.371 230.549 63.9283 231.242V241.055H60.5325V226.951H63.4908L63.7408 228.784C64.9075 227.299 66.345 226.555 68.0533 226.555Z" fill="black"/>
<path d="M81.7697 226.555C83.853 226.555 85.4676 227.216 86.6239 228.534C87.7905 229.857 88.3739 231.674 88.3739 233.992C88.3739 235.466 88.1082 236.773 87.5822 237.909C87.0509 239.034 86.2905 239.909 85.2905 240.534C84.2905 241.143 83.1082 241.451 81.7489 241.451C79.6655 241.451 78.0301 240.794 76.853 239.471C75.6864 238.138 75.103 236.315 75.103 233.992C75.103 232.523 75.3634 231.221 75.8947 230.096C76.4364 228.971 77.2072 228.107 78.2072 227.492C79.2072 226.867 80.3947 226.555 81.7697 226.555ZM81.7697 229.138C79.728 229.138 78.7072 230.758 78.7072 233.992C78.7072 235.659 78.9572 236.888 79.4572 237.68C79.9676 238.471 80.7332 238.867 81.7489 238.867C82.7593 238.867 83.5197 238.471 84.0197 237.68C84.5301 236.878 84.7905 235.648 84.7905 233.992C84.7905 232.341 84.5301 231.117 84.0197 230.326C83.5197 229.534 82.7697 229.138 81.7697 229.138Z" fill="black"/>
<path d="M102.92 226.953L98.3161 241.057H94.2536L89.5869 226.953H93.2744L96.2952 238.307L99.3994 226.953H102.92Z" fill="black"/>
<path d="M115.438 237.326C115.438 237.867 115.522 238.273 115.688 238.534C115.855 238.799 116.126 239.003 116.501 239.138L115.792 241.409C114.985 241.336 114.324 241.143 113.813 240.826C113.313 240.492 112.928 240.003 112.667 239.346C112.178 240.055 111.574 240.586 110.855 240.93C110.147 241.273 109.345 241.451 108.459 241.451C107.053 241.451 105.943 241.055 105.126 240.263C104.303 239.461 103.897 238.409 103.897 237.117C103.897 235.576 104.449 234.404 105.563 233.596C106.673 232.794 108.256 232.388 110.313 232.388H112.084V231.596C112.084 230.68 111.876 230.044 111.459 229.68C111.042 229.32 110.365 229.138 109.438 229.138C108.407 229.138 107.167 229.388 105.709 229.888L104.897 227.555C106.657 226.888 108.365 226.555 110.022 226.555C113.631 226.555 115.438 228.174 115.438 231.409V237.326ZM109.355 238.971C110.506 238.971 111.417 238.398 112.084 237.242V234.388H110.667C108.459 234.388 107.355 235.211 107.355 236.846C107.355 237.513 107.522 238.034 107.855 238.409C108.199 238.784 108.699 238.971 109.355 238.971Z" fill="black"/>
<path d="M127.638 240.388C127.149 240.753 126.597 241.013 125.972 241.18C125.357 241.357 124.732 241.451 124.097 241.451C122.706 241.435 121.649 241.049 120.93 240.284C120.222 239.508 119.868 238.362 119.868 236.846V229.409H117.638V226.951H119.868V223.826L123.263 223.43V226.951H126.555L126.201 229.409H123.263V236.763C123.263 237.461 123.378 237.961 123.618 238.263C123.868 238.555 124.248 238.701 124.763 238.701C125.274 238.701 125.836 238.534 126.451 238.201L127.638 240.388Z" fill="black"/>
<path d="M132.968 226.951V241.055H129.572V226.951H132.968ZM131.239 219.805C131.874 219.805 132.395 220.008 132.801 220.409C133.202 220.799 133.405 221.294 133.405 221.888C133.405 222.471 133.202 222.961 132.801 223.346C132.395 223.737 131.874 223.93 131.239 223.93C130.614 223.93 130.098 223.737 129.697 223.346C129.306 222.961 129.114 222.471 129.114 221.888C129.114 221.294 129.306 220.799 129.697 220.409C130.098 220.008 130.614 219.805 131.239 219.805Z" fill="black"/>
<path d="M148.422 226.953L143.818 241.057H139.756L135.089 226.953H138.776L141.797 238.307L144.901 226.953H148.422Z" fill="black"/>
<path d="M162.086 233.659C162.086 233.841 162.055 234.305 162.003 235.055H153.149C153.258 236.43 153.612 237.409 154.211 237.992C154.82 238.576 155.628 238.867 156.628 238.867C157.237 238.867 157.82 238.773 158.378 238.576C158.93 238.367 159.524 238.049 160.149 237.617L161.544 239.555C159.987 240.82 158.253 241.451 156.336 241.451C154.18 241.451 152.524 240.799 151.357 239.492C150.19 238.174 149.607 236.378 149.607 234.096C149.607 232.654 149.857 231.362 150.357 230.221C150.857 229.07 151.57 228.174 152.503 227.534C153.445 226.883 154.57 226.555 155.878 226.555C157.847 226.555 159.378 227.18 160.461 228.43C161.544 229.68 162.086 231.424 162.086 233.659ZM158.711 232.68C158.711 230.211 157.794 228.971 155.961 228.971C155.128 228.971 154.472 229.279 154.003 229.888C153.529 230.503 153.242 231.487 153.149 232.846H158.711V232.68Z" fill="black"/>
<path d="M175.218 226.951V241.055H171.822V226.951H175.218ZM173.489 219.805C174.124 219.805 174.645 220.008 175.051 220.409C175.452 220.799 175.655 221.294 175.655 221.888C175.655 222.471 175.452 222.961 175.051 223.346C174.645 223.737 174.124 223.93 173.489 223.93C172.864 223.93 172.348 223.737 171.947 223.346C171.556 222.961 171.364 222.471 171.364 221.888C171.364 221.294 171.556 220.799 171.947 220.409C172.348 220.008 172.864 219.805 173.489 219.805Z" fill="black"/>
<path d="M191.193 221.305V241.055H188.193L187.943 239.263C187.495 239.945 186.928 240.482 186.235 240.867C185.553 241.253 184.782 241.451 183.922 241.451C182.198 241.451 180.87 240.784 179.943 239.451C179.011 238.117 178.547 236.305 178.547 234.013C178.547 232.57 178.777 231.284 179.235 230.159C179.704 229.034 180.37 228.154 181.235 227.513C182.094 226.878 183.094 226.555 184.235 226.555C185.579 226.555 186.761 227.065 187.777 228.076V220.93L191.193 221.305ZM184.881 238.867C185.474 238.867 186.006 238.721 186.464 238.43C186.933 238.138 187.37 237.68 187.777 237.055V230.596C187.37 230.096 186.964 229.732 186.547 229.492C186.131 229.242 185.641 229.117 185.089 229.117C184.183 229.117 183.469 229.523 182.943 230.326C182.412 231.133 182.152 232.357 182.152 233.992C182.152 235.732 182.381 236.982 182.839 237.742C183.308 238.492 183.99 238.867 184.881 238.867Z" fill="black"/>
<path d="M206.869 233.659C206.869 233.841 206.837 234.305 206.785 235.055H197.931C198.04 236.43 198.395 237.409 198.994 237.992C199.603 238.576 200.41 238.867 201.41 238.867C202.02 238.867 202.603 238.773 203.16 238.576C203.712 238.367 204.306 238.049 204.931 237.617L206.327 239.555C204.77 240.82 203.035 241.451 201.119 241.451C198.962 241.451 197.306 240.799 196.139 239.492C194.973 238.174 194.389 236.378 194.389 234.096C194.389 232.654 194.639 231.362 195.139 230.221C195.639 229.07 196.353 228.174 197.285 227.534C198.228 226.883 199.353 226.555 200.66 226.555C202.629 226.555 204.16 227.18 205.244 228.43C206.327 229.68 206.869 231.424 206.869 233.659ZM203.494 232.68C203.494 230.211 202.577 228.971 200.744 228.971C199.91 228.971 199.254 229.279 198.785 229.888C198.311 230.503 198.025 231.487 197.931 232.846H203.494V232.68Z" fill="black"/>
<path d="M220.357 237.326C220.357 237.867 220.44 238.273 220.607 238.534C220.774 238.799 221.044 239.003 221.419 239.138L220.711 241.409C219.904 241.336 219.242 241.143 218.732 240.826C218.232 240.492 217.846 240.003 217.586 239.346C217.096 240.055 216.492 240.586 215.774 240.93C215.065 241.273 214.263 241.451 213.378 241.451C211.971 241.451 210.862 241.055 210.044 240.263C209.221 239.461 208.815 238.409 208.815 237.117C208.815 235.576 209.367 234.404 210.482 233.596C211.591 232.794 213.175 232.388 215.232 232.388H217.003V231.596C217.003 230.68 216.794 230.044 216.378 229.68C215.961 229.32 215.284 229.138 214.357 229.138C213.326 229.138 212.086 229.388 210.628 229.888L209.815 227.555C211.576 226.888 213.284 226.555 214.94 226.555C218.55 226.555 220.357 228.174 220.357 231.409V237.326ZM214.274 238.971C215.425 238.971 216.336 238.398 217.003 237.242V234.388H215.586C213.378 234.388 212.274 235.211 212.274 236.846C212.274 237.513 212.44 238.034 212.774 238.409C213.117 238.784 213.617 238.971 214.274 238.971Z" fill="black"/>
<path d="M228.932 226.555C230.833 226.555 232.505 227.112 233.953 228.221L232.62 230.221C231.411 229.461 230.229 229.076 229.078 229.076C228.396 229.076 227.87 229.211 227.495 229.471C227.12 229.721 226.932 230.065 226.932 230.492C226.932 230.815 227.005 231.086 227.161 231.305C227.328 231.513 227.62 231.716 228.036 231.909C228.463 232.091 229.083 232.294 229.89 232.513C231.416 232.93 232.547 233.482 233.286 234.159C234.036 234.826 234.411 235.763 234.411 236.971C234.411 238.378 233.838 239.471 232.703 240.263C231.562 241.055 230.146 241.451 228.453 241.451C227.297 241.451 226.245 241.273 225.286 240.93C224.338 240.57 223.521 240.076 222.828 239.451L224.536 237.534C225.755 238.466 227.036 238.93 228.37 238.93C229.13 238.93 229.745 238.779 230.203 238.471C230.661 238.169 230.89 237.753 230.89 237.221C230.89 236.805 230.797 236.482 230.62 236.242C230.453 236.008 230.151 235.799 229.724 235.617C229.291 235.424 228.609 235.195 227.682 234.93C226.234 234.529 225.172 233.982 224.495 233.284C223.828 232.576 223.495 231.701 223.495 230.659C223.495 229.867 223.713 229.169 224.161 228.555C224.62 227.93 225.265 227.445 226.099 227.096C226.932 226.737 227.875 226.555 228.932 226.555Z" fill="black"/>
<path d="M247.243 226.951V241.055H243.847V226.951H247.243ZM245.514 219.805C246.149 219.805 246.67 220.008 247.076 220.409C247.477 220.799 247.68 221.294 247.68 221.888C247.68 222.471 247.477 222.961 247.076 223.346C246.67 223.737 246.149 223.93 245.514 223.93C244.889 223.93 244.373 223.737 243.972 223.346C243.581 222.961 243.389 222.471 243.389 221.888C243.389 221.294 243.581 220.799 243.972 220.409C244.373 220.008 244.889 219.805 245.514 219.805Z" fill="black"/>
<path d="M258.885 226.555C260.135 226.555 261.114 226.93 261.822 227.68C262.531 228.43 262.885 229.487 262.885 230.846V241.055H259.468V231.367C259.468 230.534 259.312 229.951 259.01 229.617C258.718 229.284 258.286 229.117 257.718 229.117C257.135 229.117 256.603 229.299 256.135 229.659C255.661 230.023 255.202 230.549 254.76 231.242V241.055H251.364V226.951H254.322L254.572 228.784C255.739 227.299 257.176 226.555 258.885 226.555Z" fill="black"/>
<path d="M283.932 237.326C283.932 237.867 284.015 238.273 284.182 238.534C284.348 238.799 284.619 239.003 284.994 239.138L284.286 241.409C283.479 241.336 282.817 241.143 282.307 240.826C281.807 240.492 281.421 240.003 281.161 239.346C280.671 240.055 280.067 240.586 279.348 240.93C278.64 241.273 277.838 241.451 276.953 241.451C275.546 241.451 274.437 241.055 273.619 240.263C272.796 239.461 272.39 238.409 272.39 237.117C272.39 235.576 272.942 234.404 274.057 233.596C275.166 232.794 276.75 232.388 278.807 232.388H280.578V231.596C280.578 230.68 280.369 230.044 279.953 229.68C279.536 229.32 278.859 229.138 277.932 229.138C276.901 229.138 275.661 229.388 274.203 229.888L273.39 227.555C275.151 226.888 276.859 226.555 278.515 226.555C282.125 226.555 283.932 228.174 283.932 231.409V237.326ZM277.848 238.971C279 238.971 279.911 238.398 280.578 237.242V234.388H279.161C276.953 234.388 275.848 235.211 275.848 236.846C275.848 237.513 276.015 238.034 276.348 238.409C276.692 238.784 277.192 238.971 277.848 238.971Z" fill="black"/>
<path d="M293.736 226.555C294.663 226.555 295.496 226.69 296.236 226.951C296.97 227.216 297.663 227.633 298.319 228.201L296.799 230.263C296.325 229.904 295.866 229.648 295.424 229.492C294.976 229.326 294.486 229.242 293.944 229.242C291.83 229.242 290.778 230.857 290.778 234.076C290.778 235.701 291.049 236.878 291.59 237.596C292.142 238.32 292.929 238.68 293.944 238.68C294.444 238.68 294.903 238.607 295.319 238.451C295.736 238.284 296.226 238.023 296.799 237.659L298.319 239.826C296.986 240.909 295.465 241.451 293.757 241.451C292.408 241.451 291.236 241.148 290.236 240.555C289.246 239.961 288.486 239.112 287.944 238.013C287.413 236.919 287.153 235.617 287.153 234.117C287.153 232.633 287.413 231.32 287.944 230.18C288.486 229.029 289.246 228.138 290.236 227.513C291.236 226.878 292.403 226.555 293.736 226.555Z" fill="black"/>
<path d="M308.874 240.388C308.384 240.753 307.832 241.013 307.207 241.18C306.592 241.357 305.967 241.451 305.332 241.451C303.941 241.435 302.884 241.049 302.165 240.284C301.457 239.508 301.103 238.362 301.103 236.846V229.409H298.874V226.951H301.103V223.826L304.499 223.43V226.951H307.79L307.436 229.409H304.499V236.763C304.499 237.461 304.613 237.961 304.853 238.263C305.103 238.555 305.483 238.701 305.999 238.701C306.509 238.701 307.071 238.534 307.686 238.201L308.874 240.388Z" fill="black"/>
<path d="M314.203 226.951V241.055H310.807V226.951H314.203ZM312.474 219.805C313.109 219.805 313.63 220.008 314.036 220.409C314.437 220.799 314.64 221.294 314.64 221.888C314.64 222.471 314.437 222.961 314.036 223.346C313.63 223.737 313.109 223.93 312.474 223.93C311.849 223.93 311.333 223.737 310.932 223.346C310.541 222.961 310.349 222.471 310.349 221.888C310.349 221.294 310.541 220.799 310.932 220.409C311.333 220.008 311.849 219.805 312.474 219.805Z" fill="black"/>
<path d="M324.074 226.555C326.157 226.555 327.772 227.216 328.928 228.534C330.095 229.857 330.678 231.674 330.678 233.992C330.678 235.466 330.413 236.773 329.887 237.909C329.355 239.034 328.595 239.909 327.595 240.534C326.595 241.143 325.413 241.451 324.053 241.451C321.97 241.451 320.335 240.794 319.157 239.471C317.991 238.138 317.407 236.315 317.407 233.992C317.407 232.523 317.668 231.221 318.199 230.096C318.741 228.971 319.512 228.107 320.512 227.492C321.512 226.867 322.699 226.555 324.074 226.555ZM324.074 229.138C322.032 229.138 321.012 230.758 321.012 233.992C321.012 235.659 321.262 236.888 321.762 237.68C322.272 238.471 323.038 238.867 324.053 238.867C325.064 238.867 325.824 238.471 326.324 237.68C326.835 236.878 327.095 235.648 327.095 233.992C327.095 232.341 326.835 231.117 326.324 230.326C325.824 229.534 325.074 229.138 324.074 229.138Z" fill="black"/>
<path d="M341.412 226.555C342.662 226.555 343.641 226.93 344.35 227.68C345.058 228.43 345.412 229.487 345.412 230.846V241.055H341.996V231.367C341.996 230.534 341.839 229.951 341.537 229.617C341.246 229.284 340.813 229.117 340.246 229.117C339.662 229.117 339.131 229.299 338.662 229.659C338.188 230.023 337.73 230.549 337.287 231.242V241.055H333.891V226.951H336.85L337.1 228.784C338.266 227.299 339.704 226.555 341.412 226.555Z" fill="black"/>
</svg>
