<svg xmlns="http://www.w3.org/2000/svg" xmlns:xlink="http://www.w3.org/1999/xlink" width="500" zoomAndPan="magnify" viewBox="0 0 375 374.999991" height="500" preserveAspectRatio="xMidYMid meet" version="1.2"><defs><clipPath id="f5799d142e"><path d="M 110.515625 186.789062 L 161.984375 186.789062 L 161.984375 231.203125 L 110.515625 231.203125 Z M 110.515625 186.789062 "/></clipPath><clipPath id="8f68132082"><path d="M 136 143.515625 L 212.980469 143.515625 L 212.980469 231.203125 L 136 231.203125 Z M 136 143.515625 "/></clipPath><clipPath id="0701d4c473"><path d="M 187.246094 143.515625 L 264.164062 143.515625 L 264.164062 231.203125 L 187.246094 231.203125 Z M 187.246094 143.515625 "/></clipPath></defs><g id="4608a470fa"><g clip-rule="nonzero" clip-path="url(#f5799d142e)"><path style=" stroke:none;fill-rule:nonzero;fill:#aecde2;fill-opacity:1;" d="M 148.925781 186.835938 L 123.335938 186.835938 L 110.515625 209.042969 L 123.335938 231.203125 L 148.925781 231.203125 L 161.746094 209.042969 L 148.925781 186.835938 "/></g><g clip-rule="nonzero" clip-path="url(#8f68132082)"><path style=" stroke:none;fill-rule:nonzero;fill:#86c7ed;fill-opacity:1;" d="M 204.875 195.035156 L 204.878906 195.03125 L 204.015625 193.539062 L 200.160156 186.835938 L 200.140625 186.835938 L 182.90625 157 L 182.902344 157.003906 L 174.519531 142.515625 L 148.925781 142.515625 L 136.105469 164.675781 L 144.734375 179.589844 L 165.855469 216.171875 L 174.519531 231.203125 L 200.160156 231.203125 L 212.929688 209.042969 L 204.875 195.035156 "/></g><g clip-rule="nonzero" clip-path="url(#0701d4c473)"><path style=" stroke:none;fill-rule:nonzero;fill:#1836b2;fill-opacity:1;" d="M 255.457031 193.957031 L 255.492188 193.9375 L 233.566406 155.90625 L 233.515625 155.9375 L 225.753906 142.515625 L 200.160156 142.515625 L 187.339844 164.675781 L 200.160156 186.835938 L 200.167969 186.835938 L 212.96875 208.980469 L 212.929688 209.042969 L 225.753906 231.203125 L 251.34375 231.203125 L 264.164062 209.042969 L 255.457031 193.957031 "/></g></g></svg>