<svg width="459" height="57" viewBox="0 0 459 57" fill="none" xmlns="http://www.w3.org/2000/svg">
<mask id="mask0_769_490" style="mask-type:luminance" maskUnits="userSpaceOnUse" x="0" y="27" width="34" height="30">
<path d="M0.026123 27.7734H33.172V56.3776H0.026123V27.7734Z" fill="white"/>
</mask>
<g mask="url(#mask0_769_490)">
<path d="M24.7657 27.8047H8.28133L0.026123 42.1068L8.28133 56.3776H24.7657L33.0209 42.1068L24.7657 27.8047Z" fill="#AECDE2"/>
</g>
<mask id="mask1_769_490" style="mask-type:luminance" maskUnits="userSpaceOnUse" x="16" y="-1" width="51" height="58">
<path d="M16.2917 -0.0078125H66.0105V56.3776H16.2917V-0.0078125Z" fill="white"/>
</mask>
<g mask="url(#mask1_769_490)">
<path d="M60.7918 33.0885H60.797L60.2397 32.125L57.7554 27.8073H57.745L46.646 8.59375L46.6408 8.59896L41.245 -0.734375H24.7658L16.5054 13.5365L22.0627 23.1406L35.6616 46.6979L41.245 56.3802H57.7554L65.9793 42.1094L60.7918 33.0885Z" fill="#86C7ED"/>
</g>
<mask id="mask2_769_490" style="mask-type:luminance" maskUnits="userSpaceOnUse" x="49" y="-1" width="50" height="58">
<path d="M49.4375 -0.0078125H98.974V56.3776H49.4375V-0.0078125Z" fill="white"/>
</mask>
<g mask="url(#mask2_769_490)">
<path d="M93.3646 32.3958L93.3906 32.3802L79.2708 7.89063L79.2396 7.91146L74.2396 -0.734375H57.7552L49.5 13.5365L57.7552 27.8073H57.7604L66.0052 42.0677L65.9792 42.1094L74.2396 56.3802H90.7188L98.974 42.1094L93.3646 32.3958Z" fill="#1836B2"/>
</g>
<path d="M158.974 47.0078H148.078L147.536 31.487L147.474 28.9245C147.401 26.5234 147.37 24.7057 147.37 23.4661C147.37 20.4661 147.484 17.4766 147.724 14.487L142.036 42.6953H131.557L125.495 14.487C125.854 19.1536 126.036 23.2682 126.036 26.8203C126.036 28.862 126.016 30.4193 125.974 31.487L125.495 47.0078H114.599L117.661 5.38281H131.432L136.995 32.987L142.036 5.38281H155.87L158.974 47.0078Z" fill="black"/>
<path d="M181.082 4.30469C187.108 4.30469 191.795 6.22135 195.144 10.0547C198.504 13.888 200.186 19.2578 200.186 26.1589C200.186 30.6745 199.436 34.5859 197.936 37.888C196.436 41.1797 194.248 43.7109 191.373 45.4714C188.498 47.2214 185.066 48.0964 181.082 48.0964C175.05 48.0964 170.373 46.1797 167.04 42.3464C163.707 38.513 162.04 33.1172 162.04 26.1589C162.04 21.6589 162.78 17.7734 164.269 14.4922C165.769 11.2161 167.941 8.70052 170.79 6.95052C173.649 5.1901 177.082 4.30469 181.082 4.30469ZM181.082 12.263C178.483 12.263 176.571 13.3464 175.353 15.513C174.144 17.6693 173.54 21.2161 173.54 26.1589C173.54 31.1172 174.155 34.6901 175.394 36.8672C176.629 39.0339 178.524 40.1172 181.082 40.1172C183.717 40.1172 185.634 39.0443 186.832 36.888C188.024 34.737 188.623 31.1589 188.623 26.1589C188.623 21.2161 188.024 17.6693 186.832 15.513C185.634 13.3464 183.717 12.263 181.082 12.263Z" fill="black"/>
<path d="M237.865 47.0078H223.906L213.365 15.6745L213.531 16.9453C213.932 19.6953 214.245 22.2786 214.469 24.6953C214.688 27.112 214.802 29.8568 214.802 32.9245V47.0078H204.969V5.38281H218.635L229.531 36.8203C229.057 33.8359 228.688 31.1484 228.427 28.7578C228.161 26.3568 228.031 23.5911 228.031 20.4661V5.38281H237.865V47.0078Z" fill="black"/>
<path d="M261.754 4.30469C267.78 4.30469 272.468 6.22135 275.817 10.0547C279.176 13.888 280.858 19.2578 280.858 26.1589C280.858 30.6745 280.108 34.5859 278.608 37.888C277.108 41.1797 274.921 43.7109 272.046 45.4714C269.171 47.2214 265.739 48.0964 261.754 48.0964C255.723 48.0964 251.046 46.1797 247.713 42.3464C244.379 38.513 242.713 33.1172 242.713 26.1589C242.713 21.6589 243.452 17.7734 244.942 14.4922C246.442 11.2161 248.614 8.70052 251.463 6.95052C254.322 5.1901 257.754 4.30469 261.754 4.30469ZM261.754 12.263C259.155 12.263 257.244 13.3464 256.025 15.513C254.817 17.6693 254.213 21.2161 254.213 26.1589C254.213 31.1172 254.827 34.6901 256.067 36.8672C257.301 39.0339 259.197 40.1172 261.754 40.1172C264.39 40.1172 266.306 39.0443 267.504 36.888C268.697 34.737 269.296 31.1589 269.296 26.1589C269.296 21.2161 268.697 17.6693 267.504 15.513C266.306 13.3464 264.39 12.263 261.754 12.263Z" fill="black"/>
<path d="M300.016 4.30469C303.167 4.30469 305.954 4.76302 308.371 5.67969C310.787 6.59635 312.954 7.98177 314.871 9.82552L309.912 15.6797C307.037 13.4036 304.022 12.263 300.871 12.263C299.23 12.263 297.98 12.5755 297.121 13.2005C296.256 13.8255 295.829 14.6953 295.829 15.8047C295.829 16.612 296.042 17.2734 296.475 17.7839C296.917 18.2995 297.662 18.7995 298.704 19.2839C299.746 19.7578 301.381 20.3568 303.621 21.0755C307.881 22.4401 311.001 24.1484 312.975 26.2005C314.959 28.2578 315.954 31.1068 315.954 34.7422C315.954 37.3672 315.272 39.6953 313.912 41.7214C312.563 43.737 310.6 45.3047 308.016 46.4297C305.443 47.5391 302.423 48.0964 298.954 48.0964C292.313 48.0964 286.897 46.0755 282.704 42.0339L288.162 35.9922C291.48 38.7005 294.933 40.0547 298.516 40.0547C300.402 40.0547 301.86 39.6536 302.891 38.8464C303.933 38.0286 304.454 36.9401 304.454 35.5755C304.454 34.6172 304.251 33.8359 303.85 33.2214C303.459 32.5964 302.751 32.0339 301.725 31.5339C300.709 31.0339 299.225 30.487 297.266 29.888C292.558 28.4036 289.246 26.6276 287.329 24.5547C285.412 22.4714 284.454 19.8568 284.454 16.7005C284.454 14.2318 285.121 12.0547 286.454 10.1797C287.787 8.30469 289.641 6.86198 292.016 5.84635C294.402 4.82031 297.068 4.30469 300.016 4.30469Z" fill="black"/>
<path d="M350.024 5.38281L348.899 13.8203H339.065V47.0078H327.982V13.8203H317.565V5.38281H350.024Z" fill="black"/>
<path d="M370.575 4.30469C376.601 4.30469 381.289 6.22135 384.638 10.0547C387.997 13.888 389.68 19.2578 389.68 26.1589C389.68 30.6745 388.93 34.5859 387.43 37.888C385.93 41.1797 383.742 43.7109 380.867 45.4714C377.992 47.2214 374.56 48.0964 370.575 48.0964C364.544 48.0964 359.867 46.1797 356.534 42.3464C353.2 38.513 351.534 33.1172 351.534 26.1589C351.534 21.6589 352.273 17.7734 353.763 14.4922C355.263 11.2161 357.435 8.70052 360.284 6.95052C363.143 5.1901 366.575 4.30469 370.575 4.30469ZM370.575 12.263C367.976 12.263 366.065 13.3464 364.846 15.513C363.638 17.6693 363.034 21.2161 363.034 26.1589C363.034 31.1172 363.648 34.6901 364.888 36.8672C366.122 39.0339 368.018 40.1172 370.575 40.1172C373.211 40.1172 375.127 39.0443 376.325 36.888C377.518 34.737 378.117 31.1589 378.117 26.1589C378.117 21.2161 377.518 17.6693 376.325 15.513C375.127 13.3464 373.211 12.263 370.575 12.263Z" fill="black"/>
<path d="M408.608 31.6745H405.546V47.0078H394.462V5.38281H408.9C414.775 5.38281 419.155 6.44531 422.046 8.57031C424.947 10.6849 426.4 13.9349 426.4 18.3203C426.4 20.9609 425.785 23.1641 424.567 24.9245C423.343 26.6745 421.4 28.2474 418.733 29.6328L429.087 47.0078H416.754L408.608 31.6745ZM405.546 24.1328H409.254C413.087 24.1328 415.004 22.1953 415.004 18.3203C415.004 16.5182 414.473 15.1953 413.421 14.362C412.363 13.5286 410.78 13.112 408.671 13.112H405.546V24.1328Z" fill="black"/>
<path d="M458.011 5.38281L456.886 13.2161H442.678V22.0911H455.074V29.6953H442.678V39.1536H457.845V47.0078H431.595V5.38281H458.011Z" fill="black"/>
</svg>
