<svg xmlns="http://www.w3.org/2000/svg" xmlns:xlink="http://www.w3.org/1999/xlink" width="500" zoomAndPan="magnify" viewBox="0 0 375 374.999991" height="500" preserveAspectRatio="xMidYMid meet" version="1.2"><defs><clipPath id="1b80704cae"><path d="M 115.210938 136.660156 L 166.679688 136.660156 L 166.679688 181.074219 L 115.210938 181.074219 Z M 115.210938 136.660156 "/></clipPath><clipPath id="77ba84608c"><path d="M 140.46875 93.386719 L 217.675781 93.386719 L 217.675781 181.074219 L 140.46875 181.074219 Z M 140.46875 93.386719 "/></clipPath><clipPath id="4f8b292f31"><path d="M 192 93.386719 L 268.859375 93.386719 L 268.859375 181.074219 L 192 181.074219 Z M 192 93.386719 "/></clipPath></defs><g id="9f80f743b5"><g clip-rule="nonzero" clip-path="url(#1b80704cae)"><path style=" stroke:none;fill-rule:nonzero;fill:#aecde2;fill-opacity:1;" d="M 153.625 136.707031 L 128.03125 136.707031 L 115.210938 158.914062 L 128.03125 181.078125 L 153.625 181.078125 L 166.441406 158.914062 L 153.625 136.707031 "/></g><g clip-rule="nonzero" clip-path="url(#77ba84608c)"><path style=" stroke:none;fill-rule:nonzero;fill:#86c7ed;fill-opacity:1;" d="M 209.570312 144.90625 L 209.574219 144.902344 L 208.710938 143.410156 L 204.855469 136.707031 L 204.835938 136.707031 L 187.601562 106.871094 L 187.597656 106.875 L 179.214844 92.386719 L 153.625 92.386719 L 140.800781 114.546875 L 149.429688 129.460938 L 170.550781 166.042969 L 179.214844 181.078125 L 204.855469 181.078125 L 217.628906 158.914062 L 209.570312 144.90625 "/></g><g clip-rule="nonzero" clip-path="url(#4f8b292f31)"><path style=" stroke:none;fill-rule:nonzero;fill:#1836b2;fill-opacity:1;" d="M 260.152344 143.828125 L 260.1875 143.808594 L 238.261719 105.777344 L 238.214844 105.808594 L 230.449219 92.386719 L 204.855469 92.386719 L 192.035156 114.546875 L 204.855469 136.707031 L 204.863281 136.707031 L 217.667969 158.851562 L 217.628906 158.914062 L 230.449219 181.078125 L 256.039062 181.078125 L 268.859375 158.914062 L 260.152344 143.828125 "/></g><g style="fill:#000000;fill-opacity:1;"><g transform="translate(47.563046, 238.632114)"><path style="stroke:none" d="M 38.25 0 L 29.15625 0 L 28.703125 -12.953125 L 28.65625 -15.09375 C 28.582031 -17.09375 28.546875 -18.613281 28.546875 -19.65625 C 28.546875 -22.15625 28.644531 -24.65625 28.84375 -27.15625 L 24.09375 -3.59375 L 15.34375 -3.59375 L 10.296875 -27.15625 C 10.597656 -23.25 10.75 -19.8125 10.75 -16.84375 C 10.75 -15.144531 10.734375 -13.847656 10.703125 -12.953125 L 10.296875 0 L 1.203125 0 L 3.75 -34.75 L 15.25 -34.75 L 19.90625 -11.703125 L 24.09375 -34.75 L 35.65625 -34.75 Z M 38.25 0 "/></g></g><g style="fill:#000000;fill-opacity:1;"><g transform="translate(87.006937, 238.632114)"><path style="stroke:none" d="M 17.25 -35.65625 C 22.28125 -35.65625 26.195312 -34.050781 29 -30.84375 C 31.800781 -27.644531 33.203125 -23.164062 33.203125 -17.40625 C 33.203125 -13.632812 32.578125 -10.375 31.328125 -7.625 C 30.078125 -4.875 28.25 -2.765625 25.84375 -1.296875 C 23.445312 0.171875 20.582031 0.90625 17.25 0.90625 C 12.21875 0.90625 8.304688 -0.691406 5.515625 -3.890625 C 2.734375 -7.097656 1.34375 -11.601562 1.34375 -17.40625 C 1.34375 -21.164062 1.96875 -24.410156 3.21875 -27.140625 C 4.46875 -29.878906 6.285156 -31.984375 8.671875 -33.453125 C 11.054688 -34.921875 13.914062 -35.65625 17.25 -35.65625 Z M 17.25 -29 C 15.082031 -29 13.488281 -28.097656 12.46875 -26.296875 C 11.457031 -24.492188 10.953125 -21.53125 10.953125 -17.40625 C 10.953125 -13.269531 11.46875 -10.289062 12.5 -8.46875 C 13.53125 -6.65625 15.113281 -5.75 17.25 -5.75 C 19.445312 -5.75 21.046875 -6.648438 22.046875 -8.453125 C 23.046875 -10.253906 23.546875 -13.238281 23.546875 -17.40625 C 23.546875 -21.53125 23.046875 -24.492188 22.046875 -26.296875 C 21.046875 -28.097656 19.445312 -29 17.25 -29 Z M 17.25 -29 "/></g></g><g style="fill:#000000;fill-opacity:1;"><g transform="translate(121.501601, 238.632114)"><path style="stroke:none" d="M 30.15625 0 L 18.5 0 L 9.703125 -26.15625 L 9.84375 -25.09375 C 10.175781 -22.800781 10.4375 -20.644531 10.625 -18.625 C 10.8125 -16.601562 10.90625 -14.3125 10.90625 -11.75 L 10.90625 0 L 2.703125 0 L 2.703125 -34.75 L 14.09375 -34.75 L 23.203125 -8.5 C 22.796875 -11 22.484375 -13.25 22.265625 -15.25 C 22.054688 -17.25 21.953125 -19.550781 21.953125 -22.15625 L 21.953125 -34.75 L 30.15625 -34.75 Z M 30.15625 0 "/></g></g><g style="fill:#000000;fill-opacity:1;"><g transform="translate(154.34652, 238.632114)"><path style="stroke:none" d="M 17.25 -35.65625 C 22.28125 -35.65625 26.195312 -34.050781 29 -30.84375 C 31.800781 -27.644531 33.203125 -23.164062 33.203125 -17.40625 C 33.203125 -13.632812 32.578125 -10.375 31.328125 -7.625 C 30.078125 -4.875 28.25 -2.765625 25.84375 -1.296875 C 23.445312 0.171875 20.582031 0.90625 17.25 0.90625 C 12.21875 0.90625 8.304688 -0.691406 5.515625 -3.890625 C 2.734375 -7.097656 1.34375 -11.601562 1.34375 -17.40625 C 1.34375 -21.164062 1.96875 -24.410156 3.21875 -27.140625 C 4.46875 -29.878906 6.285156 -31.984375 8.671875 -33.453125 C 11.054688 -34.921875 13.914062 -35.65625 17.25 -35.65625 Z M 17.25 -29 C 15.082031 -29 13.488281 -28.097656 12.46875 -26.296875 C 11.457031 -24.492188 10.953125 -21.53125 10.953125 -17.40625 C 10.953125 -13.269531 11.46875 -10.289062 12.5 -8.46875 C 13.53125 -6.65625 15.113281 -5.75 17.25 -5.75 C 19.445312 -5.75 21.046875 -6.648438 22.046875 -8.453125 C 23.046875 -10.253906 23.546875 -13.238281 23.546875 -17.40625 C 23.546875 -21.53125 23.046875 -24.492188 22.046875 -26.296875 C 21.046875 -28.097656 19.445312 -29 17.25 -29 Z M 17.25 -29 "/></g></g><g style="fill:#000000;fill-opacity:1;"><g transform="translate(188.841184, 238.632114)"><path style="stroke:none" d="M 14.703125 -35.65625 C 17.335938 -35.65625 19.660156 -35.269531 21.671875 -34.5 C 23.691406 -33.726562 25.5 -32.578125 27.09375 -31.046875 L 22.953125 -26.15625 C 20.546875 -28.050781 18.03125 -29 15.40625 -29 C 14.03125 -29 12.984375 -28.738281 12.265625 -28.21875 C 11.554688 -27.707031 11.203125 -26.984375 11.203125 -26.046875 C 11.203125 -25.378906 11.382812 -24.828125 11.75 -24.390625 C 12.113281 -23.960938 12.726562 -23.546875 13.59375 -23.140625 C 14.46875 -22.742188 15.835938 -22.25 17.703125 -21.65625 C 21.265625 -20.519531 23.867188 -19.09375 25.515625 -17.375 C 27.171875 -15.65625 28 -13.28125 28 -10.25 C 28 -8.050781 27.429688 -6.109375 26.296875 -4.421875 C 25.160156 -2.742188 23.519531 -1.4375 21.375 -0.5 C 19.226562 0.4375 16.703125 0.90625 13.796875 0.90625 C 8.265625 0.90625 3.75 -0.78125 0.25 -4.15625 L 4.796875 -9.203125 C 7.566406 -6.929688 10.453125 -5.796875 13.453125 -5.796875 C 15.015625 -5.796875 16.226562 -6.132812 17.09375 -6.8125 C 17.96875 -7.5 18.40625 -8.410156 18.40625 -9.546875 C 18.40625 -10.347656 18.238281 -11.003906 17.90625 -11.515625 C 17.570312 -12.035156 16.976562 -12.503906 16.125 -12.921875 C 15.269531 -13.335938 14.03125 -13.796875 12.40625 -14.296875 C 8.46875 -15.535156 5.695312 -17.019531 4.09375 -18.75 C 2.5 -20.476562 1.703125 -22.660156 1.703125 -25.296875 C 1.703125 -27.367188 2.257812 -29.1875 3.375 -30.75 C 4.488281 -32.3125 6.035156 -33.519531 8.015625 -34.375 C 10.003906 -35.226562 12.234375 -35.65625 14.703125 -35.65625 Z M 14.703125 -35.65625 "/></g></g><g style="fill:#000000;fill-opacity:1;"><g transform="translate(217.8367, 238.632114)"><path style="stroke:none" d="M 27.453125 -34.75 L 26.5 -27.703125 L 18.296875 -27.703125 L 18.296875 0 L 9.046875 0 L 9.046875 -27.703125 L 0.34375 -27.703125 L 0.34375 -34.75 Z M 27.453125 -34.75 "/></g></g><g style="fill:#000000;fill-opacity:1;"><g transform="translate(245.18247, 238.632114)"><path style="stroke:none" d="M 17.25 -35.65625 C 22.28125 -35.65625 26.195312 -34.050781 29 -30.84375 C 31.800781 -27.644531 33.203125 -23.164062 33.203125 -17.40625 C 33.203125 -13.632812 32.578125 -10.375 31.328125 -7.625 C 30.078125 -4.875 28.25 -2.765625 25.84375 -1.296875 C 23.445312 0.171875 20.582031 0.90625 17.25 0.90625 C 12.21875 0.90625 8.304688 -0.691406 5.515625 -3.890625 C 2.734375 -7.097656 1.34375 -11.601562 1.34375 -17.40625 C 1.34375 -21.164062 1.96875 -24.410156 3.21875 -27.140625 C 4.46875 -29.878906 6.285156 -31.984375 8.671875 -33.453125 C 11.054688 -34.921875 13.914062 -35.65625 17.25 -35.65625 Z M 17.25 -29 C 15.082031 -29 13.488281 -28.097656 12.46875 -26.296875 C 11.457031 -24.492188 10.953125 -21.53125 10.953125 -17.40625 C 10.953125 -13.269531 11.46875 -10.289062 12.5 -8.46875 C 13.53125 -6.65625 15.113281 -5.75 17.25 -5.75 C 19.445312 -5.75 21.046875 -6.648438 22.046875 -8.453125 C 23.046875 -10.253906 23.546875 -13.238281 23.546875 -17.40625 C 23.546875 -21.53125 23.046875 -24.492188 22.046875 -26.296875 C 21.046875 -28.097656 19.445312 -29 17.25 -29 Z M 17.25 -29 "/></g></g><g style="fill:#000000;fill-opacity:1;"><g transform="translate(279.677134, 238.632114)"><path style="stroke:none" d="M 14.5 -12.796875 L 11.953125 -12.796875 L 11.953125 0 L 2.703125 0 L 2.703125 -34.75 L 14.75 -34.75 C 19.644531 -34.75 23.300781 -33.863281 25.71875 -32.09375 C 28.132812 -30.332031 29.34375 -27.617188 29.34375 -23.953125 C 29.34375 -21.753906 28.832031 -19.921875 27.8125 -18.453125 C 26.800781 -16.984375 25.179688 -15.664062 22.953125 -14.5 L 31.59375 0 L 21.296875 0 Z M 11.953125 -19.09375 L 15.046875 -19.09375 C 18.242188 -19.09375 19.84375 -20.710938 19.84375 -23.953125 C 19.84375 -25.453125 19.398438 -26.550781 18.515625 -27.25 C 17.640625 -27.945312 16.316406 -28.296875 14.546875 -28.296875 L 11.953125 -28.296875 Z M 11.953125 -19.09375 "/></g></g><g style="fill:#000000;fill-opacity:1;"><g transform="translate(310.672334, 238.632114)"><path style="stroke:none" d="M 24.75 -34.75 L 23.796875 -28.203125 L 11.953125 -28.203125 L 11.953125 -20.796875 L 22.296875 -20.796875 L 22.296875 -14.453125 L 11.953125 -14.453125 L 11.953125 -6.546875 L 24.59375 -6.546875 L 24.59375 0 L 2.703125 0 L 2.703125 -34.75 Z M 24.75 -34.75 "/></g></g><g style="fill:#000000;fill-opacity:1;"><g transform="translate(75.125544, 274.179532)"><path style="stroke:none" d="M 4.265625 -13.8125 L 4.265625 0 L 1.625 0 L 1.625 -13.8125 Z M 4.265625 -13.8125 "/></g></g><g style="fill:#000000;fill-opacity:1;"><g transform="translate(81.003229, 274.179532)"><path style="stroke:none" d="M 7.1875 -10.875 C 8.125 -10.875 8.859375 -10.59375 9.390625 -10.03125 C 9.921875 -9.46875 10.1875 -8.675781 10.1875 -7.65625 L 10.1875 0 L 7.625 0 L 7.625 -7.265625 C 7.625 -7.890625 7.507812 -8.328125 7.28125 -8.578125 C 7.0625 -8.828125 6.738281 -8.953125 6.3125 -8.953125 C 5.875 -8.953125 5.476562 -8.816406 5.125 -8.546875 C 4.769531 -8.273438 4.425781 -7.878906 4.09375 -7.359375 L 4.09375 0 L 1.546875 0 L 1.546875 -10.578125 L 3.765625 -10.578125 L 3.953125 -9.203125 C 4.828125 -10.316406 5.90625 -10.875 7.1875 -10.875 Z M 7.1875 -10.875 "/></g></g><g style="fill:#000000;fill-opacity:1;"><g transform="translate(92.61865, 274.179532)"><path style="stroke:none" d="M 7.1875 -10.875 C 8.125 -10.875 8.859375 -10.59375 9.390625 -10.03125 C 9.921875 -9.46875 10.1875 -8.675781 10.1875 -7.65625 L 10.1875 0 L 7.625 0 L 7.625 -7.265625 C 7.625 -7.890625 7.507812 -8.328125 7.28125 -8.578125 C 7.0625 -8.828125 6.738281 -8.953125 6.3125 -8.953125 C 5.875 -8.953125 5.476562 -8.816406 5.125 -8.546875 C 4.769531 -8.273438 4.425781 -7.878906 4.09375 -7.359375 L 4.09375 0 L 1.546875 0 L 1.546875 -10.578125 L 3.765625 -10.578125 L 3.953125 -9.203125 C 4.828125 -10.316406 5.90625 -10.875 7.1875 -10.875 Z M 7.1875 -10.875 "/></g></g><g style="fill:#000000;fill-opacity:1;"><g transform="translate(104.23407, 274.179532)"><path style="stroke:none" d="M 5.859375 -10.875 C 7.421875 -10.875 8.632812 -10.378906 9.5 -9.390625 C 10.375 -8.398438 10.8125 -7.035156 10.8125 -5.296875 C 10.8125 -4.191406 10.613281 -3.210938 10.21875 -2.359375 C 9.820312 -1.515625 9.25 -0.859375 8.5 -0.390625 C 7.75 0.0664062 6.863281 0.296875 5.84375 0.296875 C 4.28125 0.296875 3.054688 -0.195312 2.171875 -1.1875 C 1.296875 -2.1875 0.859375 -3.554688 0.859375 -5.296875 C 0.859375 -6.398438 1.054688 -7.375 1.453125 -8.21875 C 1.859375 -9.0625 2.4375 -9.710938 3.1875 -10.171875 C 3.9375 -10.640625 4.828125 -10.875 5.859375 -10.875 Z M 5.859375 -8.9375 C 4.328125 -8.9375 3.5625 -7.722656 3.5625 -5.296875 C 3.5625 -4.046875 3.75 -3.125 4.125 -2.53125 C 4.507812 -1.9375 5.082031 -1.640625 5.84375 -1.640625 C 6.601562 -1.640625 7.171875 -1.9375 7.546875 -2.53125 C 7.929688 -3.132812 8.125 -4.054688 8.125 -5.296875 C 8.125 -6.535156 7.929688 -7.453125 7.546875 -8.046875 C 7.171875 -8.640625 6.609375 -8.9375 5.859375 -8.9375 Z M 5.859375 -8.9375 "/></g></g><g style="fill:#000000;fill-opacity:1;"><g transform="translate(115.909469, 274.179532)"><path style="stroke:none" d="M 10.046875 -10.578125 L 6.59375 0 L 3.546875 0 L 0.046875 -10.578125 L 2.8125 -10.578125 L 5.078125 -2.0625 L 7.40625 -10.578125 Z M 10.046875 -10.578125 "/></g></g><g style="fill:#000000;fill-opacity:1;"><g transform="translate(125.985499, 274.179532)"><path style="stroke:none" d="M 9.359375 -2.796875 C 9.359375 -2.390625 9.421875 -2.085938 9.546875 -1.890625 C 9.671875 -1.691406 9.875 -1.539062 10.15625 -1.4375 L 9.625 0.265625 C 9.019531 0.210938 8.523438 0.0664062 8.140625 -0.171875 C 7.765625 -0.421875 7.476562 -0.789062 7.28125 -1.28125 C 6.914062 -0.75 6.460938 -0.351562 5.921875 -0.09375 C 5.390625 0.164062 4.789062 0.296875 4.125 0.296875 C 3.070312 0.296875 2.238281 0 1.625 -0.59375 C 1.007812 -1.195312 0.703125 -1.984375 0.703125 -2.953125 C 0.703125 -4.109375 1.117188 -4.988281 1.953125 -5.59375 C 2.785156 -6.195312 3.972656 -6.5 5.515625 -6.5 L 6.84375 -6.5 L 6.84375 -7.09375 C 6.84375 -7.78125 6.6875 -8.257812 6.375 -8.53125 C 6.0625 -8.800781 5.554688 -8.9375 4.859375 -8.9375 C 4.085938 -8.9375 3.15625 -8.75 2.0625 -8.375 L 1.453125 -10.125 C 2.773438 -10.625 4.054688 -10.875 5.296875 -10.875 C 8.003906 -10.875 9.359375 -9.660156 9.359375 -7.234375 Z M 4.796875 -1.5625 C 5.660156 -1.5625 6.34375 -1.992188 6.84375 -2.859375 L 6.84375 -5 L 5.78125 -5 C 4.125 -5 3.296875 -4.382812 3.296875 -3.15625 C 3.296875 -2.65625 3.421875 -2.265625 3.671875 -1.984375 C 3.929688 -1.703125 4.304688 -1.5625 4.796875 -1.5625 Z M 4.796875 -1.5625 "/></g></g><g style="fill:#000000;fill-opacity:1;"><g transform="translate(136.901194, 274.179532)"><path style="stroke:none" d="M 7.59375 -0.5 C 7.226562 -0.226562 6.8125 -0.03125 6.34375 0.09375 C 5.882812 0.226562 5.414062 0.296875 4.9375 0.296875 C 3.894531 0.285156 3.101562 -0.00390625 2.5625 -0.578125 C 2.03125 -1.160156 1.765625 -2.019531 1.765625 -3.15625 L 1.765625 -8.734375 L 0.09375 -8.734375 L 0.09375 -10.578125 L 1.765625 -10.578125 L 1.765625 -12.921875 L 4.3125 -13.21875 L 4.3125 -10.578125 L 6.78125 -10.578125 L 6.515625 -8.734375 L 4.3125 -8.734375 L 4.3125 -3.21875 C 4.3125 -2.695312 4.398438 -2.320312 4.578125 -2.09375 C 4.765625 -1.875 5.050781 -1.765625 5.4375 -1.765625 C 5.820312 -1.765625 6.242188 -1.890625 6.703125 -2.140625 Z M 7.59375 -0.5 "/></g></g><g style="fill:#000000;fill-opacity:1;"><g transform="translate(144.398241, 274.179532)"><path style="stroke:none" d="M 4.09375 -10.578125 L 4.09375 0 L 1.546875 0 L 1.546875 -10.578125 Z M 2.796875 -15.9375 C 3.273438 -15.9375 3.664062 -15.785156 3.96875 -15.484375 C 4.269531 -15.191406 4.421875 -14.820312 4.421875 -14.375 C 4.421875 -13.9375 4.269531 -13.570312 3.96875 -13.28125 C 3.664062 -12.988281 3.273438 -12.84375 2.796875 -12.84375 C 2.328125 -12.84375 1.941406 -12.988281 1.640625 -13.28125 C 1.347656 -13.570312 1.203125 -13.9375 1.203125 -14.375 C 1.203125 -14.820312 1.347656 -15.191406 1.640625 -15.484375 C 1.941406 -15.785156 2.328125 -15.9375 2.796875 -15.9375 Z M 2.796875 -15.9375 "/></g></g><g style="fill:#000000;fill-opacity:1;"><g transform="translate(150.036012, 274.179532)"><path style="stroke:none" d="M 10.046875 -10.578125 L 6.59375 0 L 3.546875 0 L 0.046875 -10.578125 L 2.8125 -10.578125 L 5.078125 -2.0625 L 7.40625 -10.578125 Z M 10.046875 -10.578125 "/></g></g><g style="fill:#000000;fill-opacity:1;"><g transform="translate(160.112042, 274.179532)"><path style="stroke:none" d="M 10.21875 -5.546875 C 10.21875 -5.410156 10.195312 -5.0625 10.15625 -4.5 L 3.515625 -4.5 C 3.597656 -3.46875 3.863281 -2.734375 4.3125 -2.296875 C 4.769531 -1.859375 5.375 -1.640625 6.125 -1.640625 C 6.582031 -1.640625 7.019531 -1.710938 7.4375 -1.859375 C 7.851562 -2.015625 8.296875 -2.253906 8.765625 -2.578125 L 9.8125 -1.125 C 8.644531 -0.175781 7.34375 0.296875 5.90625 0.296875 C 4.289062 0.296875 3.046875 -0.191406 2.171875 -1.171875 C 1.296875 -2.160156 0.859375 -3.507812 0.859375 -5.21875 C 0.859375 -6.300781 1.046875 -7.269531 1.421875 -8.125 C 1.796875 -8.988281 2.332031 -9.660156 3.03125 -10.140625 C 3.738281 -10.628906 4.582031 -10.875 5.5625 -10.875 C 7.039062 -10.875 8.1875 -10.40625 9 -9.46875 C 9.8125 -8.53125 10.21875 -7.222656 10.21875 -5.546875 Z M 7.6875 -6.28125 C 7.6875 -8.132812 7 -9.0625 5.625 -9.0625 C 5 -9.0625 4.507812 -8.832031 4.15625 -8.375 C 3.800781 -7.914062 3.585938 -7.175781 3.515625 -6.15625 L 7.6875 -6.15625 Z M 7.6875 -6.28125 "/></g></g><g style="fill:#000000;fill-opacity:1;"><g transform="translate(171.087715, 274.179532)"><path style="stroke:none" d=""/></g></g><g style="fill:#000000;fill-opacity:1;"><g transform="translate(176.085739, 274.179532)"><path style="stroke:none" d="M 4.09375 -10.578125 L 4.09375 0 L 1.546875 0 L 1.546875 -10.578125 Z M 2.796875 -15.9375 C 3.273438 -15.9375 3.664062 -15.785156 3.96875 -15.484375 C 4.269531 -15.191406 4.421875 -14.820312 4.421875 -14.375 C 4.421875 -13.9375 4.269531 -13.570312 3.96875 -13.28125 C 3.664062 -12.988281 3.273438 -12.84375 2.796875 -12.84375 C 2.328125 -12.84375 1.941406 -12.988281 1.640625 -13.28125 C 1.347656 -13.570312 1.203125 -13.9375 1.203125 -14.375 C 1.203125 -14.820312 1.347656 -15.191406 1.640625 -15.484375 C 1.941406 -15.785156 2.328125 -15.9375 2.796875 -15.9375 Z M 2.796875 -15.9375 "/></g></g><g style="fill:#000000;fill-opacity:1;"><g transform="translate(181.72351, 274.179532)"><path style="stroke:none" d="M 10.4375 -14.8125 L 10.4375 0 L 8.1875 0 L 8 -1.34375 C 7.664062 -0.832031 7.238281 -0.429688 6.71875 -0.140625 C 6.207031 0.148438 5.628906 0.296875 4.984375 0.296875 C 3.691406 0.296875 2.695312 -0.203125 2 -1.203125 C 1.300781 -2.203125 0.953125 -3.5625 0.953125 -5.28125 C 0.953125 -6.363281 1.125 -7.328125 1.46875 -8.171875 C 1.820312 -9.015625 2.320312 -9.675781 2.96875 -10.15625 C 3.613281 -10.632812 4.363281 -10.875 5.21875 -10.875 C 6.226562 -10.875 7.113281 -10.492188 7.875 -9.734375 L 7.875 -15.09375 Z M 5.703125 -1.640625 C 6.148438 -1.640625 6.546875 -1.75 6.890625 -1.96875 C 7.242188 -2.1875 7.570312 -2.53125 7.875 -3 L 7.875 -7.84375 C 7.570312 -8.21875 7.265625 -8.492188 6.953125 -8.671875 C 6.640625 -8.859375 6.273438 -8.953125 5.859375 -8.953125 C 5.179688 -8.953125 4.644531 -8.648438 4.25 -8.046875 C 3.851562 -7.441406 3.65625 -6.523438 3.65625 -5.296875 C 3.65625 -3.992188 3.828125 -3.054688 4.171875 -2.484375 C 4.523438 -1.921875 5.035156 -1.640625 5.703125 -1.640625 Z M 5.703125 -1.640625 "/></g></g><g style="fill:#000000;fill-opacity:1;"><g transform="translate(193.69879, 274.179532)"><path style="stroke:none" d="M 10.21875 -5.546875 C 10.21875 -5.410156 10.195312 -5.0625 10.15625 -4.5 L 3.515625 -4.5 C 3.597656 -3.46875 3.863281 -2.734375 4.3125 -2.296875 C 4.769531 -1.859375 5.375 -1.640625 6.125 -1.640625 C 6.582031 -1.640625 7.019531 -1.710938 7.4375 -1.859375 C 7.851562 -2.015625 8.296875 -2.253906 8.765625 -2.578125 L 9.8125 -1.125 C 8.644531 -0.175781 7.34375 0.296875 5.90625 0.296875 C 4.289062 0.296875 3.046875 -0.191406 2.171875 -1.171875 C 1.296875 -2.160156 0.859375 -3.507812 0.859375 -5.21875 C 0.859375 -6.300781 1.046875 -7.269531 1.421875 -8.125 C 1.796875 -8.988281 2.332031 -9.660156 3.03125 -10.140625 C 3.738281 -10.628906 4.582031 -10.875 5.5625 -10.875 C 7.039062 -10.875 8.1875 -10.40625 9 -9.46875 C 9.8125 -8.53125 10.21875 -7.222656 10.21875 -5.546875 Z M 7.6875 -6.28125 C 7.6875 -8.132812 7 -9.0625 5.625 -9.0625 C 5 -9.0625 4.507812 -8.832031 4.15625 -8.375 C 3.800781 -7.914062 3.585938 -7.175781 3.515625 -6.15625 L 7.6875 -6.15625 Z M 7.6875 -6.28125 "/></g></g><g style="fill:#000000;fill-opacity:1;"><g transform="translate(204.674463, 274.179532)"><path style="stroke:none" d="M 9.359375 -2.796875 C 9.359375 -2.390625 9.421875 -2.085938 9.546875 -1.890625 C 9.671875 -1.691406 9.875 -1.539062 10.15625 -1.4375 L 9.625 0.265625 C 9.019531 0.210938 8.523438 0.0664062 8.140625 -0.171875 C 7.765625 -0.421875 7.476562 -0.789062 7.28125 -1.28125 C 6.914062 -0.75 6.460938 -0.351562 5.921875 -0.09375 C 5.390625 0.164062 4.789062 0.296875 4.125 0.296875 C 3.070312 0.296875 2.238281 0 1.625 -0.59375 C 1.007812 -1.195312 0.703125 -1.984375 0.703125 -2.953125 C 0.703125 -4.109375 1.117188 -4.988281 1.953125 -5.59375 C 2.785156 -6.195312 3.972656 -6.5 5.515625 -6.5 L 6.84375 -6.5 L 6.84375 -7.09375 C 6.84375 -7.78125 6.6875 -8.257812 6.375 -8.53125 C 6.0625 -8.800781 5.554688 -8.9375 4.859375 -8.9375 C 4.085938 -8.9375 3.15625 -8.75 2.0625 -8.375 L 1.453125 -10.125 C 2.773438 -10.625 4.054688 -10.875 5.296875 -10.875 C 8.003906 -10.875 9.359375 -9.660156 9.359375 -7.234375 Z M 4.796875 -1.5625 C 5.660156 -1.5625 6.34375 -1.992188 6.84375 -2.859375 L 6.84375 -5 L 5.78125 -5 C 4.125 -5 3.296875 -4.382812 3.296875 -3.15625 C 3.296875 -2.65625 3.421875 -2.265625 3.671875 -1.984375 C 3.929688 -1.703125 4.304688 -1.5625 4.796875 -1.5625 Z M 4.796875 -1.5625 "/></g></g><g style="fill:#000000;fill-opacity:1;"><g transform="translate(215.590157, 274.179532)"><path style="stroke:none" d="M 4.875 -10.875 C 6.300781 -10.875 7.554688 -10.457031 8.640625 -9.625 L 7.640625 -8.125 C 6.734375 -8.695312 5.847656 -8.984375 4.984375 -8.984375 C 4.472656 -8.984375 4.078125 -8.882812 3.796875 -8.6875 C 3.515625 -8.5 3.375 -8.242188 3.375 -7.921875 C 3.375 -7.679688 3.429688 -7.476562 3.546875 -7.3125 C 3.671875 -7.15625 3.890625 -7.003906 4.203125 -6.859375 C 4.523438 -6.722656 4.988281 -6.570312 5.59375 -6.40625 C 6.738281 -6.09375 7.585938 -5.679688 8.140625 -5.171875 C 8.703125 -4.671875 8.984375 -3.96875 8.984375 -3.0625 C 8.984375 -2.007812 8.554688 -1.1875 7.703125 -0.59375 C 6.847656 0 5.785156 0.296875 4.515625 0.296875 C 3.648438 0.296875 2.859375 0.164062 2.140625 -0.09375 C 1.429688 -0.363281 0.816406 -0.734375 0.296875 -1.203125 L 1.578125 -2.640625 C 2.492188 -1.941406 3.453125 -1.59375 4.453125 -1.59375 C 5.023438 -1.59375 5.484375 -1.707031 5.828125 -1.9375 C 6.171875 -2.164062 6.34375 -2.476562 6.34375 -2.875 C 6.34375 -3.1875 6.273438 -3.429688 6.140625 -3.609375 C 6.015625 -3.785156 5.789062 -3.941406 5.46875 -4.078125 C 5.144531 -4.222656 4.632812 -4.394531 3.9375 -4.59375 C 2.851562 -4.894531 2.054688 -5.304688 1.546875 -5.828125 C 1.046875 -6.359375 0.796875 -7.015625 0.796875 -7.796875 C 0.796875 -8.390625 0.960938 -8.914062 1.296875 -9.375 C 1.640625 -9.84375 2.125 -10.207031 2.75 -10.46875 C 3.375 -10.738281 4.082031 -10.875 4.875 -10.875 Z M 4.875 -10.875 "/></g></g><g style="fill:#000000;fill-opacity:1;"><g transform="translate(225.1064, 274.179532)"><path style="stroke:none" d=""/></g></g><g style="fill:#000000;fill-opacity:1;"><g transform="translate(230.104423, 274.179532)"><path style="stroke:none" d="M 4.09375 -10.578125 L 4.09375 0 L 1.546875 0 L 1.546875 -10.578125 Z M 2.796875 -15.9375 C 3.273438 -15.9375 3.664062 -15.785156 3.96875 -15.484375 C 4.269531 -15.191406 4.421875 -14.820312 4.421875 -14.375 C 4.421875 -13.9375 4.269531 -13.570312 3.96875 -13.28125 C 3.664062 -12.988281 3.273438 -12.84375 2.796875 -12.84375 C 2.328125 -12.84375 1.941406 -12.988281 1.640625 -13.28125 C 1.347656 -13.570312 1.203125 -13.9375 1.203125 -14.375 C 1.203125 -14.820312 1.347656 -15.191406 1.640625 -15.484375 C 1.941406 -15.785156 2.328125 -15.9375 2.796875 -15.9375 Z M 2.796875 -15.9375 "/></g></g><g style="fill:#000000;fill-opacity:1;"><g transform="translate(235.742194, 274.179532)"><path style="stroke:none" d="M 7.1875 -10.875 C 8.125 -10.875 8.859375 -10.59375 9.390625 -10.03125 C 9.921875 -9.46875 10.1875 -8.675781 10.1875 -7.65625 L 10.1875 0 L 7.625 0 L 7.625 -7.265625 C 7.625 -7.890625 7.507812 -8.328125 7.28125 -8.578125 C 7.0625 -8.828125 6.738281 -8.953125 6.3125 -8.953125 C 5.875 -8.953125 5.476562 -8.816406 5.125 -8.546875 C 4.769531 -8.273438 4.425781 -7.878906 4.09375 -7.359375 L 4.09375 0 L 1.546875 0 L 1.546875 -10.578125 L 3.765625 -10.578125 L 3.953125 -9.203125 C 4.828125 -10.316406 5.90625 -10.875 7.1875 -10.875 Z M 7.1875 -10.875 "/></g></g><g style="fill:#000000;fill-opacity:1;"><g transform="translate(247.357615, 274.179532)"><path style="stroke:none" d=""/></g></g><g style="fill:#000000;fill-opacity:1;"><g transform="translate(252.355639, 274.179532)"><path style="stroke:none" d="M 9.359375 -2.796875 C 9.359375 -2.390625 9.421875 -2.085938 9.546875 -1.890625 C 9.671875 -1.691406 9.875 -1.539062 10.15625 -1.4375 L 9.625 0.265625 C 9.019531 0.210938 8.523438 0.0664062 8.140625 -0.171875 C 7.765625 -0.421875 7.476562 -0.789062 7.28125 -1.28125 C 6.914062 -0.75 6.460938 -0.351562 5.921875 -0.09375 C 5.390625 0.164062 4.789062 0.296875 4.125 0.296875 C 3.070312 0.296875 2.238281 0 1.625 -0.59375 C 1.007812 -1.195312 0.703125 -1.984375 0.703125 -2.953125 C 0.703125 -4.109375 1.117188 -4.988281 1.953125 -5.59375 C 2.785156 -6.195312 3.972656 -6.5 5.515625 -6.5 L 6.84375 -6.5 L 6.84375 -7.09375 C 6.84375 -7.78125 6.6875 -8.257812 6.375 -8.53125 C 6.0625 -8.800781 5.554688 -8.9375 4.859375 -8.9375 C 4.085938 -8.9375 3.15625 -8.75 2.0625 -8.375 L 1.453125 -10.125 C 2.773438 -10.625 4.054688 -10.875 5.296875 -10.875 C 8.003906 -10.875 9.359375 -9.660156 9.359375 -7.234375 Z M 4.796875 -1.5625 C 5.660156 -1.5625 6.34375 -1.992188 6.84375 -2.859375 L 6.84375 -5 L 5.78125 -5 C 4.125 -5 3.296875 -4.382812 3.296875 -3.15625 C 3.296875 -2.65625 3.421875 -2.265625 3.671875 -1.984375 C 3.929688 -1.703125 4.304688 -1.5625 4.796875 -1.5625 Z M 4.796875 -1.5625 "/></g></g><g style="fill:#000000;fill-opacity:1;"><g transform="translate(263.271333, 274.179532)"><path style="stroke:none" d="M 5.796875 -10.875 C 6.492188 -10.875 7.117188 -10.773438 7.671875 -10.578125 C 8.222656 -10.378906 8.742188 -10.066406 9.234375 -9.640625 L 8.09375 -8.09375 C 7.738281 -8.363281 7.394531 -8.554688 7.0625 -8.671875 C 6.726562 -8.796875 6.359375 -8.859375 5.953125 -8.859375 C 4.367188 -8.859375 3.578125 -7.648438 3.578125 -5.234375 C 3.578125 -4.015625 3.78125 -3.132812 4.1875 -2.59375 C 4.601562 -2.050781 5.191406 -1.78125 5.953125 -1.78125 C 6.328125 -1.78125 6.671875 -1.835938 6.984375 -1.953125 C 7.296875 -2.078125 7.664062 -2.273438 8.09375 -2.546875 L 9.234375 -0.921875 C 8.234375 -0.109375 7.09375 0.296875 5.8125 0.296875 C 4.800781 0.296875 3.921875 0.0703125 3.171875 -0.375 C 2.429688 -0.820312 1.859375 -1.457031 1.453125 -2.28125 C 1.054688 -3.101562 0.859375 -4.078125 0.859375 -5.203125 C 0.859375 -6.316406 1.054688 -7.300781 1.453125 -8.15625 C 1.859375 -9.019531 2.429688 -9.6875 3.171875 -10.15625 C 3.921875 -10.632812 4.796875 -10.875 5.796875 -10.875 Z M 5.796875 -10.875 "/></g></g><g style="fill:#000000;fill-opacity:1;"><g transform="translate(272.827573, 274.179532)"><path style="stroke:none" d="M 7.59375 -0.5 C 7.226562 -0.226562 6.8125 -0.03125 6.34375 0.09375 C 5.882812 0.226562 5.414062 0.296875 4.9375 0.296875 C 3.894531 0.285156 3.101562 -0.00390625 2.5625 -0.578125 C 2.03125 -1.160156 1.765625 -2.019531 1.765625 -3.15625 L 1.765625 -8.734375 L 0.09375 -8.734375 L 0.09375 -10.578125 L 1.765625 -10.578125 L 1.765625 -12.921875 L 4.3125 -13.21875 L 4.3125 -10.578125 L 6.78125 -10.578125 L 6.515625 -8.734375 L 4.3125 -8.734375 L 4.3125 -3.21875 C 4.3125 -2.695312 4.398438 -2.320312 4.578125 -2.09375 C 4.765625 -1.875 5.050781 -1.765625 5.4375 -1.765625 C 5.820312 -1.765625 6.242188 -1.890625 6.703125 -2.140625 Z M 7.59375 -0.5 "/></g></g><g style="fill:#000000;fill-opacity:1;"><g transform="translate(280.324597, 274.179532)"><path style="stroke:none" d="M 4.09375 -10.578125 L 4.09375 0 L 1.546875 0 L 1.546875 -10.578125 Z M 2.796875 -15.9375 C 3.273438 -15.9375 3.664062 -15.785156 3.96875 -15.484375 C 4.269531 -15.191406 4.421875 -14.820312 4.421875 -14.375 C 4.421875 -13.9375 4.269531 -13.570312 3.96875 -13.28125 C 3.664062 -12.988281 3.273438 -12.84375 2.796875 -12.84375 C 2.328125 -12.84375 1.941406 -12.988281 1.640625 -13.28125 C 1.347656 -13.570312 1.203125 -13.9375 1.203125 -14.375 C 1.203125 -14.820312 1.347656 -15.191406 1.640625 -15.484375 C 1.941406 -15.785156 2.328125 -15.9375 2.796875 -15.9375 Z M 2.796875 -15.9375 "/></g></g><g style="fill:#000000;fill-opacity:1;"><g transform="translate(285.962368, 274.179532)"><path style="stroke:none" d="M 5.859375 -10.875 C 7.421875 -10.875 8.632812 -10.378906 9.5 -9.390625 C 10.375 -8.398438 10.8125 -7.035156 10.8125 -5.296875 C 10.8125 -4.191406 10.613281 -3.210938 10.21875 -2.359375 C 9.820312 -1.515625 9.25 -0.859375 8.5 -0.390625 C 7.75 0.0664062 6.863281 0.296875 5.84375 0.296875 C 4.28125 0.296875 3.054688 -0.195312 2.171875 -1.1875 C 1.296875 -2.1875 0.859375 -3.554688 0.859375 -5.296875 C 0.859375 -6.398438 1.054688 -7.375 1.453125 -8.21875 C 1.859375 -9.0625 2.4375 -9.710938 3.1875 -10.171875 C 3.9375 -10.640625 4.828125 -10.875 5.859375 -10.875 Z M 5.859375 -8.9375 C 4.328125 -8.9375 3.5625 -7.722656 3.5625 -5.296875 C 3.5625 -4.046875 3.75 -3.125 4.125 -2.53125 C 4.507812 -1.9375 5.082031 -1.640625 5.84375 -1.640625 C 6.601562 -1.640625 7.171875 -1.9375 7.546875 -2.53125 C 7.929688 -3.132812 8.125 -4.054688 8.125 -5.296875 C 8.125 -6.535156 7.929688 -7.453125 7.546875 -8.046875 C 7.171875 -8.640625 6.609375 -8.9375 5.859375 -8.9375 Z M 5.859375 -8.9375 "/></g></g><g style="fill:#000000;fill-opacity:1;"><g transform="translate(297.637767, 274.179532)"><path style="stroke:none" d="M 7.1875 -10.875 C 8.125 -10.875 8.859375 -10.59375 9.390625 -10.03125 C 9.921875 -9.46875 10.1875 -8.675781 10.1875 -7.65625 L 10.1875 0 L 7.625 0 L 7.625 -7.265625 C 7.625 -7.890625 7.507812 -8.328125 7.28125 -8.578125 C 7.0625 -8.828125 6.738281 -8.953125 6.3125 -8.953125 C 5.875 -8.953125 5.476562 -8.816406 5.125 -8.546875 C 4.769531 -8.273438 4.425781 -7.878906 4.09375 -7.359375 L 4.09375 0 L 1.546875 0 L 1.546875 -10.578125 L 3.765625 -10.578125 L 3.953125 -9.203125 C 4.828125 -10.316406 5.90625 -10.875 7.1875 -10.875 Z M 7.1875 -10.875 "/></g></g></g></svg>